<svg xmlns="http://www.w3.org/2000/svg" xmlns:xlink="http://www.w3.org/1999/xlink" version="1.1" data-diagram-type="ACTIVITY" style="width:2177px;height:1913px;background:#FFFFFF;" width="2177px" height="1913px" viewBox="0 0 2177 1913" zoomAndPan="magnify" preserveAspectRatio="none" contentStyleType="text/css"><?plantuml 1.2026.8?><defs/><g font-family="sans-serif" lengthAdjust="spacing"><rect x="20" y="16.49" width="2130.064" height="39" fill="none" style="stroke:none;"/><rect x="20" y="16.49" width="247.733" height="1876.44" fill="#F4F8FB" style="stroke:#F4F8FB;stroke-width:1;"/><ellipse cx="86.895" cy="70.49" rx="10" ry="10" fill="#33668E" style="stroke:#222;stroke-width:1;"/><rect x="26" y="100.49" width="121.789" height="44" fill="#FEFEFE" style="stroke:#33668E;stroke-width:0.5;" rx="12.5" ry="12.5"/><text x="36" y="119.73" fill="#000" font-size="12" textLength="101.789" font-family="'Helvetica'">Відкрити сторінку</text><text x="36" y="131.73" fill="#000" font-size="12" textLength="98.578" font-family="'Helvetica'">відео на YouTube</text><rect x="119.813" y="540.49" width="143.92" height="44" fill="#FEFEFE" style="stroke:#33668E;stroke-width:0.5;" rx="12.5" ry="12.5"/><text x="129.813" y="559.73" fill="#000" font-size="12" textLength="123.92" font-family="'Helvetica'">Прочитати пояснення</text><text x="129.813" y="571.73" fill="#000" font-size="12" textLength="106.758" font-family="'Helvetica'">й закрити оверлей</text><ellipse cx="191.773" cy="615.49" rx="11" ry="11" fill="none" style="stroke:#222;stroke-width:1;"/><ellipse cx="191.773" cy="615.49" rx="6" ry="6" fill="#222" style="stroke:#222;stroke-width:1;"/><line x1="20" y1="16.49" x2="20" y2="1892.93" style="stroke:#9AB3C6;stroke-width:1.5;"/><rect x="267.733" y="16.49" width="540.292" height="1876.44" fill="#FBF7F2" style="stroke:#FBF7F2;stroke-width:1;"/><rect x="517.009" y="164.49" width="166.309" height="44" fill="#FEFEFE" style="stroke:#33668E;stroke-width:0.5;" rx="12.5" ry="12.5"/><text x="527.009" y="183.73" fill="#000" font-size="12" textLength="146.309" font-family="'Helvetica'">Знайти плеєр і визначити</text><text x="527.009" y="195.73" fill="#000" font-size="12" textLength="114.727" font-family="'Helvetica'">ідентифікатор відео</text><polygon points="512.125,228.49,688.201,228.49,698.201,250.49,688.201,272.49,512.125,272.49" fill="#FEFEFE" style="stroke:#33668E;stroke-width:0.5;stroke-linejoin:miter;stroke-miterlimit:10;"/><text x="522.125" y="247.73" fill="#000" font-size="12" textLength="156.076" font-family="'Helvetica'">Запросити перелік доріжок</text><text x="522.125" y="259.73" fill="#000" font-size="12" textLength="86.783" font-family="'Helvetica'">субтитрів відео</text><path d="M692.777,362.49 L692.777,374.49 L672.777,378.49 L692.777,382.49 L692.777,394.49 A0,0 0 0 0 692.777,394.49 L776.442,394.49 A0,0 0 0 0 776.442,394.49 L776.442,372.49 L766.442,362.49 L692.777,362.49 A0,0 0 0 0 692.777,362.49" style="stroke:#27AE60;stroke-width:0.5;" fill="#D5F5E3"/><path d="M766.442,362.49 L766.442,372.49 L776.442,372.49 L766.442,362.49" style="stroke:#27AE60;stroke-width:0.5;" fill="#D5F5E3"/><text x="698.777" y="375.96" fill="#000" font-size="11" textLength="60.752" font-family="'Helvetica'">Транскрипт</text><text x="698.777" y="386.96" fill="#000" font-size="11" textLength="62.665" font-family="'Helvetica'">[отриманий]</text><polygon points="537.549,356.49,672.777,356.49,662.777,378.49,672.777,400.49,537.549,400.49" fill="#FEFEFE" style="stroke:#33668E;stroke-width:0.5;stroke-linejoin:miter;stroke-miterlimit:10;"/><text x="547.549" y="375.73" fill="#000" font-size="12" textLength="105.229" font-family="'Helvetica'">Отримати доріжку</text><text x="547.549" y="387.73" fill="#000" font-size="12" textLength="93.574" font-family="'Helvetica'">реплік оригіналу</text><polygon points="538.335,420.49,661.991,420.49,673.991,432.49,661.991,444.49,538.335,444.49,526.335,432.49,538.335,420.49" fill="#FDF6E3" style="stroke:#33668E;stroke-width:0.5;stroke-linejoin:miter;stroke-miterlimit:10;"/><text x="538.335" y="429.73" fill="#000" font-size="12" textLength="123.656" font-family="'Helvetica'">Чи є у відео придатна</text><text x="538.335" y="441.73" fill="#000" font-size="12" textLength="109.986" font-family="'Helvetica'">доріжка оригіналу?</text><text x="520.835" y="429.96" fill="#000" font-size="11" font-family="'Helvetica'">є</text><text x="673.991" y="429.96" fill="#000" font-size="11" textLength="31.179" font-family="'Helvetica'">немає</text><rect x="400.25" y="464.49" width="190.068" height="44" fill="#FEFEFE" style="stroke:#33668E;stroke-width:0.5;" rx="12.5" ry="12.5"/><text x="410.25" y="483.73" fill="#000" font-size="12" textLength="170.068" font-family="'Helvetica'">Розрізати доріжку на частини</text><text x="410.25" y="495.73" fill="#000" font-size="12" textLength="98.467" font-family="'Helvetica'">по ≤20 000 знаків</text><polygon points="508.549,646.49,691.777,646.49,703.777,658.49,691.777,670.49,508.549,670.49,496.549,658.49,508.549,646.49" fill="#FDF6E3" style="stroke:#33668E;stroke-width:0.5;stroke-linejoin:miter;stroke-miterlimit:10;"/><text x="508.549" y="655.73" fill="#000" font-size="12" textLength="159.475" font-family="'Helvetica'">Чи обрав користувач готову</text><text x="508.549" y="667.73" fill="#000" font-size="12" textLength="183.229" font-family="'Helvetica'">доріжку перекладу платформи?</text><text x="466.052" y="655.96" fill="#000" font-size="11" textLength="30.497" font-family="'Helvetica'">обрав</text><text x="703.777" y="655.96" fill="#000" font-size="11" textLength="45.789" font-family="'Helvetica'">не обрав</text><rect x="273.733" y="690.49" width="142.344" height="56" fill="#FEFEFE" style="stroke:#33668E;stroke-width:0.5;" rx="12.5" ry="12.5"/><text x="283.733" y="709.73" fill="#000" font-size="12" textLength="122.344" font-family="'Helvetica'">Узяти готову доріжку</text><text x="283.733" y="721.73" fill="#000" font-size="12" textLength="121.6" font-family="'Helvetica'">перекладу з переліку</text><text x="283.733" y="733.73" fill="#000" font-size="12" textLength="64.564" font-family="'Helvetica'">платформи</text><polygon points="600.163,1372.93,612.163,1384.93,600.163,1396.93,588.163,1384.93,600.163,1372.93" fill="#FDF6E3" style="stroke:#33668E;stroke-width:0.5;stroke-linejoin:miter;stroke-miterlimit:10;"/><path d="M696.415,1422.93 L696.415,1434.93 L676.415,1438.93 L696.415,1442.93 L696.415,1454.93 A0,0 0 0 0 696.415,1454.93 L798.196,1454.93 A0,0 0 0 0 798.196,1454.93 L798.196,1432.93 L788.196,1422.93 L696.415,1422.93 A0,0 0 0 0 696.415,1422.93" style="stroke:#27AE60;stroke-width:0.5;" fill="#D5F5E3"/><path d="M788.196,1422.93 L788.196,1432.93 L798.196,1432.93 L788.196,1422.93" style="stroke:#27AE60;stroke-width:0.5;" fill="#D5F5E3"/><text x="702.415" y="1436.4" fill="#000" font-size="11" textLength="60.752" font-family="'Helvetica'">Транскрипт</text><text x="702.415" y="1447.4" fill="#000" font-size="11" textLength="80.781" font-family="'Helvetica'">[перекладений]</text><rect x="523.911" y="1416.93" width="152.504" height="44" fill="#FEFEFE" style="stroke:#33668E;stroke-width:0.5;" rx="12.5" ry="12.5"/><text x="533.911" y="1436.17" fill="#000" font-size="12" textLength="132.504" font-family="'Helvetica'">Прийняти перекладену</text><text x="533.911" y="1448.17" fill="#000" font-size="12" textLength="105.621" font-family="'Helvetica'">доріжку в оверлей</text><polygon points="533.651,1480.93,666.676,1480.93,678.676,1492.93,666.676,1504.93,533.651,1504.93,521.651,1492.93,533.651,1480.93" fill="#FDF6E3" style="stroke:#33668E;stroke-width:0.5;stroke-linejoin:miter;stroke-miterlimit:10;"/><text x="533.651" y="1490.17" fill="#000" font-size="12" textLength="133.025" font-family="'Helvetica'">Чи позначено відповідь</text><text x="533.651" y="1502.17" fill="#000" font-size="12" textLength="122.672" font-family="'Helvetica'">ознакою «degraded»?</text><text x="467.408" y="1490.4" fill="#000" font-size="11" textLength="54.243" font-family="'Helvetica'">позначено</text><text x="678.676" y="1490.4" fill="#000" font-size="11" textLength="69.534" font-family="'Helvetica'">не позначено</text><rect x="407.025" y="1514.93" width="181.279" height="44" fill="#FEFEFE" style="stroke:#33668E;stroke-width:0.5;" rx="12.5" ry="12.5"/><text x="417.025" y="1534.17" fill="#000" font-size="12" textLength="109.324" font-family="'Helvetica'">Показати позначку</text><text x="417.025" y="1546.17" fill="#000" font-size="12" textLength="161.279" font-family="'Helvetica'">погіршеної якості перекладу</text><rect x="608.304" y="1514.93" width="188.715" height="44" fill="#FEFEFE" style="stroke:#33668E;stroke-width:0.5;" rx="12.5" ry="12.5"/><text x="618.304" y="1534.17" fill="#000" font-size="12" textLength="109.98" font-family="'Helvetica'">Показати звичайну</text><text x="618.304" y="1546.17" fill="#000" font-size="12" textLength="168.715" font-family="'Helvetica'">позначку джерела перекладу</text><polygon points="600.163,1564.93,612.163,1576.93,600.163,1588.93,588.163,1576.93,600.163,1564.93" fill="#FDF6E3" style="stroke:#33668E;stroke-width:0.5;stroke-linejoin:miter;stroke-miterlimit:10;"/><rect x="396.301" y="1608.93" width="407.725" height="6" fill="#33668E" style="stroke:#33668E;stroke-width:1;" rx="2.5" ry="2.5"/><rect x="430.109" y="1640.93" width="114.271" height="44" fill="#FEFEFE" style="stroke:#33668E;stroke-width:0.5;" rx="12.5" ry="12.5"/><text x="440.109" y="1660.17" fill="#000" font-size="12" textLength="84.533" font-family="'Helvetica'">Вимкнути рідні</text><text x="440.109" y="1672.17" fill="#000" font-size="12" textLength="94.271" font-family="'Helvetica'">субтитри плеєра</text><rect x="410.301" y="1710.93" width="153.887" height="44" fill="#FEFEFE" style="stroke:#33668E;stroke-width:0.5;" rx="12.5" ry="12.5"/><text x="420.301" y="1730.17" fill="#000" font-size="12" textLength="133.887" font-family="'Helvetica'">Намалювати два рядки</text><text x="420.301" y="1742.17" fill="#000" font-size="12" textLength="129.387" font-family="'Helvetica'">субтитрів поверх відео</text><rect x="530.058" y="1806.93" width="140.211" height="44" fill="#FEFEFE" style="stroke:#33668E;stroke-width:0.5;" rx="12.5" ry="12.5"/><text x="540.058" y="1826.17" fill="#000" font-size="12" textLength="120.211" font-family="'Helvetica'">Підсвітити незнайомі</text><text x="540.058" y="1838.17" fill="#000" font-size="12" textLength="94.881" font-family="'Helvetica'">слова в репліках</text><ellipse cx="600.163" cy="1881.93" rx="11" ry="11" fill="none" style="stroke:#222;stroke-width:1;"/><ellipse cx="600.163" cy="1881.93" rx="6" ry="6" fill="#222" style="stroke:#222;stroke-width:1;"/><line x1="267.733" y1="16.49" x2="267.733" y2="1892.93" style="stroke:#9AB3C6;stroke-width:1.5;"/><rect x="808.026" y="16.49" width="827.688" height="1876.44" fill="#F2F7F4" style="stroke:#F2F7F4;stroke-width:1;"/><rect x="1000.267" y="464.49" width="189.447" height="56" fill="#FEFEFE" style="stroke:#33668E;stroke-width:0.5;" rx="12.5" ry="12.5"/><text x="1010.267" y="483.73" fill="#000" font-size="12" textLength="169.447" font-family="'Helvetica'">Пояснити відсутність доріжки</text><text x="1010.267" y="495.73" fill="#000" font-size="12" textLength="95.303" font-family="'Helvetica'">й запропонувати</text><text x="1010.267" y="507.73" fill="#000" font-size="12" textLength="139.512" font-family="'Helvetica'">розпізнавання мовлення</text><rect x="1153.028" y="690.49" width="184.684" height="56" fill="#FEFEFE" style="stroke:#33668E;stroke-width:0.5;" rx="12.5" ry="12.5"/><text x="1163.028" y="709.73" fill="#000" font-size="12" textLength="164.684" font-family="'Helvetica'">Обчислити відбиток доріжки</text><text x="1163.028" y="721.73" fill="#000" font-size="12" textLength="74.631" font-family="'Helvetica'">й звернутися</text><text x="1163.028" y="733.73" fill="#000" font-size="12" textLength="102.949" font-family="'Helvetica'">до спільного кеша</text><polygon points="1190.203,766.49,1300.536,766.49,1312.536,778.49,1300.536,790.49,1190.203,790.49,1178.203,778.49,1190.203,766.49" fill="#FDF6E3" style="stroke:#33668E;stroke-width:0.5;stroke-linejoin:miter;stroke-miterlimit:10;"/><text x="1190.203" y="775.73" fill="#000" font-size="12" textLength="73.688" font-family="'Helvetica'">Звідки взяти</text><text x="1190.203" y="787.73" fill="#000" font-size="12" textLength="110.332" font-family="'Helvetica'">переклад доріжки?</text><rect x="826.026" y="858.96" width="159.236" height="44" fill="#FEFEFE" style="stroke:#33668E;stroke-width:0.5;" rx="12.5" ry="12.5"/><text x="836.026" y="878.2" fill="#000" font-size="12" textLength="139.236" font-family="'Helvetica'">Узяти готовий переклад</text><text x="836.026" y="890.2" fill="#000" font-size="12" textLength="97.67" font-family="'Helvetica'">зі спільного кеша</text><rect x="1005.262" y="858.96" width="184.244" height="44" fill="#FEFEFE" style="stroke:#33668E;stroke-width:0.5;" rx="12.5" ry="12.5"/><text x="1015.262" y="878.2" fill="#000" font-size="12" textLength="121.406" font-family="'Helvetica'">Відповісти кодом 429</text><text x="1015.262" y="890.2" fill="#000" font-size="12" textLength="164.244" font-family="'Helvetica'">з ознакою «ліміт вичерпано»</text><rect x="1024.106" y="937.96" width="146.557" height="56" fill="#FEFEFE" style="stroke:#33668E;stroke-width:0.5;" rx="12.5" ry="12.5"/><text x="1034.106" y="957.2" fill="#000" font-size="12" textLength="116.039" font-family="'Helvetica'">Передати в оверлей</text><text x="1034.106" y="969.2" fill="#000" font-size="12" textLength="126.557" font-family="'Helvetica'">пропозицію оформити</text><text x="1034.106" y="981.2" fill="#000" font-size="12" textLength="48.861" font-family="'Helvetica'">підписку</text><ellipse cx="1097.384" cy="1031.96" rx="11" ry="11" fill="none" style="stroke:#222;stroke-width:1;"/><ellipse cx="1097.384" cy="1031.96" rx="6" ry="6" fill="#222" style="stroke:#222;stroke-width:1;"/><polygon points="1223.706,930.96,1396.911,930.96,1406.911,958.96,1396.911,986.96,1223.706,986.96" fill="#FEFEFE" style="stroke:#33668E;stroke-width:0.5;stroke-linejoin:miter;stroke-miterlimit:10;"/><text x="1233.706" y="950.2" fill="#000" font-size="12" textLength="153.205" font-family="'Helvetica'">Надіслати чергову частину</text><text x="1233.706" y="962.2" fill="#000" font-size="12" textLength="108.85" font-family="'Helvetica'">доріжки на якісний</text><text x="1233.706" y="974.2" fill="#000" font-size="12" textLength="109.166" font-family="'Helvetica'">переклад моделлю</text><polygon points="1209.506,1092.96,1421.111,1092.96,1411.111,1108.96,1421.111,1124.96,1209.506,1124.96" fill="#FEFEFE" style="stroke:#33668E;stroke-width:0.5;stroke-linejoin:miter;stroke-miterlimit:10;"/><text x="1219.506" y="1112.2" fill="#000" font-size="12" textLength="181.605" font-family="'Helvetica'">Отримати перекладену частину</text><rect x="1215.603" y="1144.96" width="189.412" height="56" fill="#FEFEFE" style="stroke:#33668E;stroke-width:0.5;" rx="12.5" ry="12.5"/><text x="1225.603" y="1164.2" fill="#000" font-size="12" textLength="169.412" font-family="'Helvetica'">Долучити частину до доріжки</text><text x="1225.603" y="1176.2" fill="#000" font-size="12" textLength="100.318" font-family="'Helvetica'">й списати денний</text><text x="1225.603" y="1188.2" fill="#000" font-size="12" textLength="89.654" font-family="'Helvetica'">ліміт перекладу</text><polygon points="1310.309,858.96,1322.309,870.96,1310.309,882.96,1298.309,870.96,1310.309,858.96" fill="#FDF6E3" style="stroke:#33668E;stroke-width:0.5;stroke-linejoin:miter;stroke-miterlimit:10;"/><polygon points="1240.667,1220.96,1379.95,1220.96,1391.95,1232.96,1379.95,1244.96,1240.667,1244.96,1228.667,1232.96,1240.667,1220.96" fill="#FDF6E3" style="stroke:#33668E;stroke-width:0.5;stroke-linejoin:miter;stroke-miterlimit:10;"/><text x="1314.309" y="1253.43" fill="#000" font-size="11" textLength="8.562" font-family="'Helvetica'">ні</text><text x="1240.667" y="1230.2" fill="#000" font-size="12" textLength="74.971" font-family="'Helvetica'">Чи лишилися</text><text x="1240.667" y="1242.2" fill="#000" font-size="12" textLength="139.283" font-family="'Helvetica'">неперекладені частини?</text><text x="1391.95" y="1230.43" fill="#000" font-size="11" textLength="17.644" font-family="'Helvetica'">так</text><rect x="1233.957" y="1274.93" width="152.703" height="44" fill="#FEFEFE" style="stroke:#33668E;stroke-width:0.5;" rx="12.5" ry="12.5"/><text x="1243.957" y="1294.17" fill="#000" font-size="12" textLength="129.311" font-family="'Helvetica'">Зберегти перекладену</text><text x="1243.957" y="1306.17" fill="#000" font-size="12" textLength="132.703" font-family="'Helvetica'">доріжку у спільний кеш</text><rect x="1431.111" y="858.96" width="191.697" height="56" fill="#FEFEFE" style="stroke:#33668E;stroke-width:0.5;" rx="12.5" ry="12.5"/><text x="1441.111" y="878.2" fill="#000" font-size="12" textLength="152.42" font-family="'Helvetica'">Перемкнутися на базового</text><text x="1441.111" y="890.2" fill="#000" font-size="12" textLength="157.787" font-family="'Helvetica'">постачальника й позначити</text><text x="1441.111" y="902.2" fill="#000" font-size="12" textLength="171.697" font-family="'Helvetica'">відповідь ознакою «degraded»</text><rect x="1446.164" y="1020.96" width="161.592" height="44" fill="#FEFEFE" style="stroke:#33668E;stroke-width:0.5;" rx="12.5" ry="12.5"/><text x="1456.164" y="1040.2" fill="#000" font-size="12" textLength="102.457" font-family="'Helvetica'">Зберегти базовий</text><text x="1456.164" y="1052.2" fill="#000" font-size="12" textLength="141.592" font-family="'Helvetica'">переклад у спільний кеш</text><polygon points="1245.37,1338.93,1245.37,1338.93,1257.37,1350.93,1245.37,1362.93,1245.37,1362.93,1233.37,1350.93,1245.37,1338.93" fill="#FDF6E3" style="stroke:#33668E;stroke-width:0.5;stroke-linejoin:miter;stroke-miterlimit:10;"/><rect x="1003.429" y="1634.93" width="155.252" height="56" fill="#FEFEFE" style="stroke:#33668E;stroke-width:0.5;" rx="12.5" ry="12.5"/><text x="1013.429" y="1654.17" fill="#000" font-size="12" textLength="135.252" font-family="'Helvetica'">Обчислити зрозумілість</text><text x="1013.429" y="1666.17" fill="#000" font-size="12" textLength="129.814" font-family="'Helvetica'">матеріалу за профілем</text><text x="1013.429" y="1678.17" fill="#000" font-size="12" textLength="90.92" font-family="'Helvetica'">відомої лексики</text><rect x="982.136" y="1716.93" width="197.838" height="44" fill="#FEFEFE" style="stroke:#33668E;stroke-width:0.5;" rx="12.5" ry="12.5"/><text x="992.136" y="1736.17" fill="#000" font-size="12" textLength="132.563" font-family="'Helvetica'">Повернути перелік слів</text><text x="992.136" y="1748.17" fill="#000" font-size="12" textLength="177.838" font-family="'Helvetica'">поза профілем відомої лексики</text><rect x="814.026" y="1780.93" width="379.948" height="6" fill="#33668E" style="stroke:#33668E;stroke-width:1;" rx="2.5" ry="2.5"/><line x1="808.026" y1="16.49" x2="808.026" y2="1892.93" style="stroke:#9AB3C6;stroke-width:1.5;"/><rect x="1635.714" y="16.49" width="170.273" height="1876.44" fill="#FDF7F7" style="stroke:#FDF7F7;stroke-width:1;"/><rect x="1641.714" y="292.49" width="160.273" height="44" fill="#FEFEFE" style="stroke:#33668E;stroke-width:0.5;" rx="12.5" ry="12.5"/><text x="1651.714" y="311.73" fill="#000" font-size="12" textLength="140.273" font-family="'Helvetica'">Віддати перелік доріжок</text><text x="1651.714" y="323.73" fill="#000" font-size="12" textLength="88.201" font-family="'Helvetica'">і метадані мови</text><line x1="1635.714" y1="16.49" x2="1635.714" y2="1892.93" style="stroke:#9AB3C6;stroke-width:1.5;"/><rect x="1805.987" y="16.49" width="343.271" height="1876.44" fill="#FFF9EC" style="stroke:#FFF9EC;stroke-width:1;"/><rect x="1811.987" y="1013.96" width="135.969" height="44" fill="#FEFEFE" style="stroke:#33668E;stroke-width:0.5;" rx="12.5" ry="12.5"/><text x="1821.987" y="1033.2" fill="#000" font-size="12" textLength="115.969" font-family="'Helvetica'">Перекласти частину</text><text x="1821.987" y="1045.2" fill="#000" font-size="12" textLength="101.279" font-family="'Helvetica'">доріжки моделлю</text><rect x="1957.956" y="949.96" width="187.303" height="44" fill="#FEFEFE" style="stroke:#33668E;stroke-width:0.5;" rx="12.5" ry="12.5"/><text x="1967.956" y="969.2" fill="#000" font-size="12" textLength="167.303" font-family="'Helvetica'">Перекласти доріжку базовим</text><text x="1967.956" y="981.2" fill="#000" font-size="12" textLength="131.449" font-family="'Helvetica'">машинним перекладом</text><line x1="1805.987" y1="16.49" x2="1805.987" y2="1892.93" style="stroke:#9AB3C6;stroke-width:1.5;"/><line x1="2149.258" y1="16.49" x2="2149.258" y2="1892.93" style="stroke:#9AB3C6;stroke-width:1.5;"/><line x1="86.895" y1="80.49" x2="86.895" y2="100.49" style="stroke:#33668E;stroke-width:1;"/><polygon points="82.895,90.49,86.895,100.49,90.895,90.49,86.895,94.49" fill="#33668E" style="stroke:#33668E;stroke-width:1;stroke-linejoin:miter;stroke-miterlimit:10;"/><line x1="191.773" y1="584.49" x2="191.773" y2="604.49" style="stroke:#33668E;stroke-width:1;"/><polygon points="187.773,594.49,191.773,604.49,195.773,594.49,191.773,598.49" fill="#33668E" style="stroke:#33668E;stroke-width:1;stroke-linejoin:miter;stroke-miterlimit:10;"/><line x1="600.163" y1="208.49" x2="600.163" y2="228.49" style="stroke:#33668E;stroke-width:1;"/><polygon points="596.163,218.49,600.163,228.49,604.163,218.49,600.163,222.49" fill="#33668E" style="stroke:#33668E;stroke-width:1;stroke-linejoin:miter;stroke-miterlimit:10;"/><line x1="526.335" y1="432.49" x2="495.284" y2="432.49" style="stroke:#33668E;stroke-width:1;"/><line x1="495.284" y1="432.49" x2="495.284" y2="464.49" style="stroke:#33668E;stroke-width:1;"/><polygon points="491.284,454.49,495.284,464.49,499.284,454.49,495.284,458.49" fill="#33668E" style="stroke:#33668E;stroke-width:1;stroke-linejoin:miter;stroke-miterlimit:10;"/><line x1="495.284" y1="508.49" x2="495.284" y2="631.49" style="stroke:#33668E;stroke-width:1;"/><line x1="495.284" y1="631.49" x2="600.163" y2="631.49" style="stroke:#33668E;stroke-width:1;"/><line x1="600.163" y1="631.49" x2="600.163" y2="646.49" style="stroke:#33668E;stroke-width:1;"/><polygon points="596.163,636.49,600.163,646.49,604.163,636.49,600.163,640.49" fill="#33668E" style="stroke:#33668E;stroke-width:1;stroke-linejoin:miter;stroke-miterlimit:10;"/><line x1="600.163" y1="400.49" x2="600.163" y2="420.49" style="stroke:#33668E;stroke-width:1;"/><polygon points="596.163,410.49,600.163,420.49,604.163,410.49,600.163,414.49" fill="#33668E" style="stroke:#33668E;stroke-width:1;stroke-linejoin:miter;stroke-miterlimit:10;"/><line x1="496.549" y1="658.49" x2="344.905" y2="658.49" style="stroke:#33668E;stroke-width:1;"/><line x1="344.905" y1="658.49" x2="344.905" y2="690.49" style="stroke:#33668E;stroke-width:1;"/><polygon points="340.905,680.49,344.905,690.49,348.905,680.49,344.905,684.49" fill="#33668E" style="stroke:#33668E;stroke-width:1;stroke-linejoin:miter;stroke-miterlimit:10;"/><line x1="344.905" y1="746.49" x2="344.905" y2="1384.93" style="stroke:#33668E;stroke-width:1;"/><line x1="344.905" y1="1384.93" x2="588.163" y2="1384.93" style="stroke:#33668E;stroke-width:1;"/><polygon points="578.163,1380.93,588.163,1384.93,578.163,1388.93,582.163,1384.93" fill="#33668E" style="stroke:#33668E;stroke-width:1;stroke-linejoin:miter;stroke-miterlimit:10;"/><line x1="600.163" y1="1396.93" x2="600.163" y2="1416.93" style="stroke:#33668E;stroke-width:1;"/><polygon points="596.163,1406.93,600.163,1416.93,604.163,1406.93,600.163,1410.93" fill="#33668E" style="stroke:#33668E;stroke-width:1;stroke-linejoin:miter;stroke-miterlimit:10;"/><line x1="521.651" y1="1492.93" x2="497.665" y2="1492.93" style="stroke:#33668E;stroke-width:1;"/><line x1="497.665" y1="1492.93" x2="497.665" y2="1514.93" style="stroke:#33668E;stroke-width:1;"/><polygon points="493.665,1504.93,497.665,1514.93,501.665,1504.93,497.665,1508.93" fill="#33668E" style="stroke:#33668E;stroke-width:1;stroke-linejoin:miter;stroke-miterlimit:10;"/><line x1="678.676" y1="1492.93" x2="702.662" y2="1492.93" style="stroke:#33668E;stroke-width:1;"/><line x1="702.662" y1="1492.93" x2="702.662" y2="1514.93" style="stroke:#33668E;stroke-width:1;"/><polygon points="698.662,1504.93,702.662,1514.93,706.662,1504.93,702.662,1508.93" fill="#33668E" style="stroke:#33668E;stroke-width:1;stroke-linejoin:miter;stroke-miterlimit:10;"/><line x1="497.665" y1="1558.93" x2="497.665" y2="1576.93" style="stroke:#33668E;stroke-width:1;"/><line x1="497.665" y1="1576.93" x2="588.163" y2="1576.93" style="stroke:#33668E;stroke-width:1;"/><polygon points="578.163,1572.93,588.163,1576.93,578.163,1580.93,582.163,1576.93" fill="#33668E" style="stroke:#33668E;stroke-width:1;stroke-linejoin:miter;stroke-miterlimit:10;"/><line x1="702.662" y1="1558.93" x2="702.662" y2="1576.93" style="stroke:#33668E;stroke-width:1;"/><line x1="702.662" y1="1576.93" x2="612.163" y2="1576.93" style="stroke:#33668E;stroke-width:1;"/><polygon points="622.163,1572.93,612.163,1576.93,622.163,1580.93,618.163,1576.93" fill="#33668E" style="stroke:#33668E;stroke-width:1;stroke-linejoin:miter;stroke-miterlimit:10;"/><line x1="600.163" y1="1460.93" x2="600.163" y2="1480.93" style="stroke:#33668E;stroke-width:1;"/><polygon points="596.163,1470.93,600.163,1480.93,604.163,1470.93,600.163,1474.93" fill="#33668E" style="stroke:#33668E;stroke-width:1;stroke-linejoin:miter;stroke-miterlimit:10;"/><line x1="487.244" y1="1684.93" x2="487.244" y2="1710.93" style="stroke:#33668E;stroke-width:1;"/><polygon points="483.244,1700.93,487.244,1710.93,491.244,1700.93,487.244,1704.93" fill="#33668E" style="stroke:#33668E;stroke-width:1;stroke-linejoin:miter;stroke-miterlimit:10;"/><line x1="487.244" y1="1614.93" x2="487.244" y2="1640.93" style="stroke:#33668E;stroke-width:1;"/><polygon points="483.244,1630.93,487.244,1640.93,491.244,1630.93,487.244,1634.93" fill="#33668E" style="stroke:#33668E;stroke-width:1;stroke-linejoin:miter;stroke-miterlimit:10;"/><line x1="600.163" y1="1588.93" x2="600.163" y2="1608.93" style="stroke:#33668E;stroke-width:1;"/><polygon points="596.163,1598.93,600.163,1608.93,604.163,1598.93,600.163,1602.93" fill="#33668E" style="stroke:#33668E;stroke-width:1;stroke-linejoin:miter;stroke-miterlimit:10;"/><line x1="600.163" y1="1850.93" x2="600.163" y2="1870.93" style="stroke:#33668E;stroke-width:1;"/><polygon points="596.163,1860.93,600.163,1870.93,604.163,1860.93,600.163,1864.93" fill="#33668E" style="stroke:#33668E;stroke-width:1;stroke-linejoin:miter;stroke-miterlimit:10;"/><line x1="1097.384" y1="902.96" x2="1097.384" y2="937.96" style="stroke:#33668E;stroke-width:1;"/><polygon points="1093.384,927.96,1097.384,937.96,1101.384,927.96,1097.384,931.96" fill="#33668E" style="stroke:#33668E;stroke-width:1;stroke-linejoin:miter;stroke-miterlimit:10;"/><line x1="1097.384" y1="993.96" x2="1097.384" y2="1020.96" style="stroke:#33668E;stroke-width:1;"/><polygon points="1093.384,1010.96,1097.384,1020.96,1101.384,1010.96,1097.384,1014.96" fill="#33668E" style="stroke:#33668E;stroke-width:1;stroke-linejoin:miter;stroke-miterlimit:10;"/><line x1="1310.309" y1="1124.96" x2="1310.309" y2="1144.96" style="stroke:#33668E;stroke-width:1;"/><polygon points="1306.309,1134.96,1310.309,1144.96,1314.309,1134.96,1310.309,1138.96" fill="#33668E" style="stroke:#33668E;stroke-width:1;stroke-linejoin:miter;stroke-miterlimit:10;"/><line x1="1310.309" y1="882.96" x2="1310.309" y2="930.96" style="stroke:#33668E;stroke-width:1;"/><polygon points="1306.309,920.96,1310.309,930.96,1314.309,920.96,1310.309,924.96" fill="#33668E" style="stroke:#33668E;stroke-width:1;stroke-linejoin:miter;stroke-miterlimit:10;"/><line x1="1228.667" y1="1232.96" x2="1197.506" y2="1232.96" style="stroke:#33668E;stroke-width:1;"/><polygon points="1193.506,1079.46,1197.506,1069.46,1201.506,1079.46,1197.506,1075.46" fill="#33668E" style="stroke:#33668E;stroke-width:1;stroke-linejoin:miter;stroke-miterlimit:10;"/><line x1="1197.506" y1="870.96" x2="1197.506" y2="1232.96" style="stroke:#33668E;stroke-width:1;"/><line x1="1197.506" y1="870.96" x2="1298.309" y2="870.96" style="stroke:#33668E;stroke-width:1;"/><polygon points="1288.309,866.96,1298.309,870.96,1288.309,874.96,1292.309,870.96" fill="#33668E" style="stroke:#33668E;stroke-width:1;stroke-linejoin:miter;stroke-miterlimit:10;"/><line x1="1310.309" y1="1200.96" x2="1310.309" y2="1220.96" style="stroke:#33668E;stroke-width:1;"/><polygon points="1306.309,1210.96,1310.309,1220.96,1314.309,1210.96,1310.309,1214.96" fill="#33668E" style="stroke:#33668E;stroke-width:1;stroke-linejoin:miter;stroke-miterlimit:10;"/><line x1="1310.309" y1="1244.96" x2="1310.309" y2="1274.93" style="stroke:#33668E;stroke-width:1;"/><polygon points="1306.309,1264.93,1310.309,1274.93,1314.309,1264.93,1310.309,1268.93" fill="#33668E" style="stroke:#33668E;stroke-width:1;stroke-linejoin:miter;stroke-miterlimit:10;"/><line x1="1178.203" y1="778.49" x2="905.644" y2="778.49" style="stroke:#33668E;stroke-width:1;"/><line x1="905.644" y1="778.49" x2="905.644" y2="858.96" style="stroke:#33668E;stroke-width:1;"/><polygon points="901.644,848.96,905.644,858.96,909.644,848.96,905.644,852.96" fill="#33668E" style="stroke:#33668E;stroke-width:1;stroke-linejoin:miter;stroke-miterlimit:10;"/><text x="905.644" y="814.46" fill="#000" font-size="11" textLength="72.848" font-family="'Helvetica'">переклад уже</text><text x="905.644" y="825.46" fill="#000" font-size="11" textLength="46.981" font-family="'Helvetica'">лежить у</text><text x="905.644" y="836.46" fill="#000" font-size="11" textLength="77.134" font-family="'Helvetica'">спільному кеші</text><line x1="1312.536" y1="778.49" x2="1526.96" y2="778.49" style="stroke:#33668E;stroke-width:1;"/><line x1="1526.96" y1="778.49" x2="1526.96" y2="858.96" style="stroke:#33668E;stroke-width:1;"/><polygon points="1522.96,848.96,1526.96,858.96,1530.96,848.96,1526.96,852.96" fill="#33668E" style="stroke:#33668E;stroke-width:1;stroke-linejoin:miter;stroke-miterlimit:10;"/><text x="1526.96" y="814.46" fill="#000" font-size="11" textLength="64.109" font-family="'Helvetica'">кеша немає,</text><text x="1526.96" y="825.46" fill="#000" font-size="11" textLength="103.753" font-family="'Helvetica'">якісний перекладач</text><text x="1526.96" y="836.46" fill="#000" font-size="11" textLength="66.591" font-family="'Helvetica'">недоступний</text><line x1="1097.384" y1="778.49" x2="1097.384" y2="858.96" style="stroke:#33668E;stroke-width:1;"/><polygon points="1093.384,848.96,1097.384,858.96,1101.384,848.96,1097.384,852.96" fill="#33668E" style="stroke:#33668E;stroke-width:1;stroke-linejoin:miter;stroke-miterlimit:10;"/><text x="1097.384" y="809.46" fill="#000" font-size="11" textLength="64.109" font-family="'Helvetica'">кеша немає,</text><text x="1097.384" y="820.46" fill="#000" font-size="11" textLength="64.942" font-family="'Helvetica'">денний ліміт</text><text x="1097.384" y="831.46" fill="#000" font-size="11" textLength="55.07" font-family="'Helvetica'">вичерпано</text><line x1="1245.37" y1="790.49" x2="1245.37" y2="815.823" style="stroke:#33668E;stroke-width:1;"/><line x1="1245.37" y1="815.823" x2="1310.309" y2="815.823" style="stroke:#33668E;stroke-width:1;"/><line x1="1310.309" y1="815.823" x2="1310.309" y2="858.96" style="stroke:#33668E;stroke-width:1;"/><polygon points="1306.309,848.96,1310.309,858.96,1314.309,848.96,1310.309,852.96" fill="#33668E" style="stroke:#33668E;stroke-width:1;stroke-linejoin:miter;stroke-miterlimit:10;"/><text x="1245.37" y="815.46" fill="#000" font-size="11" textLength="64.109" font-family="'Helvetica'">кеша немає,</text><text x="1245.37" y="826.46" fill="#000" font-size="11" textLength="103.753" font-family="'Helvetica'">якісний перекладач</text><text x="1245.37" y="837.46" fill="#000" font-size="11" textLength="54.355" font-family="'Helvetica'">доступний</text><line x1="905.644" y1="902.96" x2="905.644" y2="1350.93" style="stroke:#33668E;stroke-width:1;"/><line x1="905.644" y1="1350.93" x2="1233.37" y2="1350.93" style="stroke:#33668E;stroke-width:1;"/><polygon points="1223.37,1346.93,1233.37,1350.93,1223.37,1354.93,1227.37,1350.93" fill="#33668E" style="stroke:#33668E;stroke-width:1;stroke-linejoin:miter;stroke-miterlimit:10;"/><line x1="1526.96" y1="1064.96" x2="1526.96" y2="1350.93" style="stroke:#33668E;stroke-width:1;"/><line x1="1526.96" y1="1350.93" x2="1257.37" y2="1350.93" style="stroke:#33668E;stroke-width:1;"/><polygon points="1267.37,1346.93,1257.37,1350.93,1267.37,1354.93,1263.37,1350.93" fill="#33668E" style="stroke:#33668E;stroke-width:1;stroke-linejoin:miter;stroke-miterlimit:10;"/><line x1="1310.309" y1="1318.93" x2="1310.309" y2="1323.93" style="stroke:#33668E;stroke-width:1;"/><line x1="1310.309" y1="1323.93" x2="1245.37" y2="1323.93" style="stroke:#33668E;stroke-width:1;"/><line x1="1245.37" y1="1323.93" x2="1245.37" y2="1338.93" style="stroke:#33668E;stroke-width:1;"/><polygon points="1241.37,1328.93,1245.37,1338.93,1249.37,1328.93,1245.37,1332.93" fill="#33668E" style="stroke:#33668E;stroke-width:1;stroke-linejoin:miter;stroke-miterlimit:10;"/><line x1="1245.37" y1="746.49" x2="1245.37" y2="766.49" style="stroke:#33668E;stroke-width:1;"/><polygon points="1241.37,756.49,1245.37,766.49,1249.37,756.49,1245.37,760.49" fill="#33668E" style="stroke:#33668E;stroke-width:1;stroke-linejoin:miter;stroke-miterlimit:10;"/><line x1="1081.055" y1="1690.93" x2="1081.055" y2="1716.93" style="stroke:#33668E;stroke-width:1;"/><polygon points="1077.055,1706.93,1081.055,1716.93,1085.055,1706.93,1081.055,1710.93" fill="#33668E" style="stroke:#33668E;stroke-width:1;stroke-linejoin:miter;stroke-miterlimit:10;"/><line x1="1081.055" y1="1760.93" x2="1081.055" y2="1780.93" style="stroke:#33668E;stroke-width:1;"/><polygon points="1077.055,1770.93,1081.055,1780.93,1085.055,1770.93,1081.055,1774.93" fill="#33668E" style="stroke:#33668E;stroke-width:1;stroke-linejoin:miter;stroke-miterlimit:10;"/><line x1="86.895" y1="144.49" x2="86.895" y2="149.49" style="stroke:#33668E;stroke-width:1;"/><line x1="86.895" y1="149.49" x2="600.163" y2="149.49" style="stroke:#33668E;stroke-width:1;"/><line x1="600.163" y1="149.49" x2="600.163" y2="164.49" style="stroke:#33668E;stroke-width:1;"/><polygon points="596.163,154.49,600.163,164.49,604.163,154.49,600.163,158.49" fill="#33668E" style="stroke:#33668E;stroke-width:1;stroke-linejoin:miter;stroke-miterlimit:10;"/><line x1="600.163" y1="272.49" x2="600.163" y2="277.49" style="stroke:#33668E;stroke-width:1;"/><line x1="600.163" y1="277.49" x2="1721.85" y2="277.49" style="stroke:#33668E;stroke-width:1;"/><line x1="1721.85" y1="277.49" x2="1721.85" y2="292.49" style="stroke:#33668E;stroke-width:1;"/><polygon points="1717.85,282.49,1721.85,292.49,1725.85,282.49,1721.85,286.49" fill="#33668E" style="stroke:#33668E;stroke-width:1;stroke-linejoin:miter;stroke-miterlimit:10;"/><line x1="1721.85" y1="336.49" x2="1721.85" y2="341.49" style="stroke:#33668E;stroke-width:1;"/><line x1="1721.85" y1="341.49" x2="600.163" y2="341.49" style="stroke:#33668E;stroke-width:1;"/><line x1="600.163" y1="341.49" x2="600.163" y2="356.49" style="stroke:#33668E;stroke-width:1;"/><polygon points="596.163,346.49,600.163,356.49,604.163,346.49,600.163,350.49" fill="#33668E" style="stroke:#33668E;stroke-width:1;stroke-linejoin:miter;stroke-miterlimit:10;"/><line x1="1094.99" y1="520.49" x2="1094.99" y2="525.49" style="stroke:#33668E;stroke-width:1;"/><line x1="1094.99" y1="525.49" x2="191.773" y2="525.49" style="stroke:#33668E;stroke-width:1;"/><line x1="191.773" y1="525.49" x2="191.773" y2="540.49" style="stroke:#33668E;stroke-width:1;"/><polygon points="187.773,530.49,191.773,540.49,195.773,530.49,191.773,534.49" fill="#33668E" style="stroke:#33668E;stroke-width:1;stroke-linejoin:miter;stroke-miterlimit:10;"/><line x1="673.991" y1="432.49" x2="1094.99" y2="432.49" style="stroke:#33668E;stroke-width:1;"/><line x1="1094.99" y1="432.49" x2="1094.99" y2="464.49" style="stroke:#33668E;stroke-width:1;"/><polygon points="1090.99,454.49,1094.99,464.49,1098.99,454.49,1094.99,458.49" fill="#33668E" style="stroke:#33668E;stroke-width:1;stroke-linejoin:miter;stroke-miterlimit:10;"/><line x1="1310.309" y1="986.96" x2="1310.309" y2="998.96" style="stroke:#33668E;stroke-width:1;"/><line x1="1310.309" y1="998.96" x2="1879.971" y2="998.96" style="stroke:#33668E;stroke-width:1;"/><line x1="1879.971" y1="998.96" x2="1879.971" y2="1013.96" style="stroke:#33668E;stroke-width:1;"/><polygon points="1875.971,1003.96,1879.971,1013.96,1883.971,1003.96,1879.971,1007.96" fill="#33668E" style="stroke:#33668E;stroke-width:1;stroke-linejoin:miter;stroke-miterlimit:10;"/><line x1="1879.971" y1="1057.96" x2="1879.971" y2="1075.46" style="stroke:#33668E;stroke-width:1;"/><line x1="1879.971" y1="1075.46" x2="1310.309" y2="1075.46" style="stroke:#33668E;stroke-width:1;"/><line x1="1310.309" y1="1075.46" x2="1310.309" y2="1092.96" style="stroke:#33668E;stroke-width:1;"/><polygon points="1306.309,1082.96,1310.309,1092.96,1314.309,1082.96,1310.309,1086.96" fill="#33668E" style="stroke:#33668E;stroke-width:1;stroke-linejoin:miter;stroke-miterlimit:10;"/><line x1="1526.96" y1="914.96" x2="1526.96" y2="932.46" style="stroke:#33668E;stroke-width:1;"/><line x1="1526.96" y1="932.46" x2="2051.607" y2="932.46" style="stroke:#33668E;stroke-width:1;"/><line x1="2051.607" y1="932.46" x2="2051.607" y2="949.96" style="stroke:#33668E;stroke-width:1;"/><polygon points="2047.607,939.96,2051.607,949.96,2055.607,939.96,2051.607,943.96" fill="#33668E" style="stroke:#33668E;stroke-width:1;stroke-linejoin:miter;stroke-miterlimit:10;"/><line x1="2051.607" y1="993.96" x2="2051.607" y2="1003.46" style="stroke:#33668E;stroke-width:1;"/><line x1="2051.607" y1="1003.46" x2="1526.96" y2="1003.46" style="stroke:#33668E;stroke-width:1;"/><line x1="1526.96" y1="1003.46" x2="1526.96" y2="1020.96" style="stroke:#33668E;stroke-width:1;"/><polygon points="1522.96,1010.96,1526.96,1020.96,1530.96,1010.96,1526.96,1014.96" fill="#33668E" style="stroke:#33668E;stroke-width:1;stroke-linejoin:miter;stroke-miterlimit:10;"/><line x1="703.777" y1="658.49" x2="1245.37" y2="658.49" style="stroke:#33668E;stroke-width:1;"/><line x1="1245.37" y1="658.49" x2="1245.37" y2="690.49" style="stroke:#33668E;stroke-width:1;"/><polygon points="1241.37,680.49,1245.37,690.49,1249.37,680.49,1245.37,684.49" fill="#33668E" style="stroke:#33668E;stroke-width:1;stroke-linejoin:miter;stroke-miterlimit:10;"/><line x1="1245.37" y1="1362.93" x2="1245.37" y2="1384.93" style="stroke:#33668E;stroke-width:1;"/><line x1="1245.37" y1="1384.93" x2="612.163" y2="1384.93" style="stroke:#33668E;stroke-width:1;"/><polygon points="622.163,1380.93,612.163,1384.93,622.163,1388.93,618.163,1384.93" fill="#33668E" style="stroke:#33668E;stroke-width:1;stroke-linejoin:miter;stroke-miterlimit:10;"/><line x1="691.107" y1="1614.93" x2="691.107" y2="1618.93" style="stroke:#33668E;stroke-width:1;"/><line x1="691.107" y1="1618.93" x2="1081.055" y2="1618.93" style="stroke:#33668E;stroke-width:1;"/><line x1="1081.055" y1="1618.93" x2="1081.055" y2="1634.93" style="stroke:#33668E;stroke-width:1;"/><polygon points="1077.055,1624.93,1081.055,1634.93,1085.055,1624.93,1081.055,1628.93" fill="#33668E" style="stroke:#33668E;stroke-width:1;stroke-linejoin:miter;stroke-miterlimit:10;"/><line x1="487.244" y1="1754.93" x2="487.244" y2="1766.93" style="stroke:#33668E;stroke-width:1;"/><line x1="487.244" y1="1766.93" x2="877.193" y2="1766.93" style="stroke:#33668E;stroke-width:1;"/><line x1="877.193" y1="1766.93" x2="877.193" y2="1780.93" style="stroke:#33668E;stroke-width:1;"/><polygon points="873.193,1770.93,877.193,1780.93,881.193,1770.93,877.193,1774.93" fill="#33668E" style="stroke:#33668E;stroke-width:1;stroke-linejoin:miter;stroke-miterlimit:10;"/><line x1="990.112" y1="1786.93" x2="990.112" y2="1791.93" style="stroke:#33668E;stroke-width:1;"/><line x1="990.112" y1="1791.93" x2="600.163" y2="1791.93" style="stroke:#33668E;stroke-width:1;"/><line x1="600.163" y1="1791.93" x2="600.163" y2="1806.93" style="stroke:#33668E;stroke-width:1;"/><polygon points="596.163,1796.93,600.163,1806.93,604.163,1796.93,600.163,1800.93" fill="#33668E" style="stroke:#33668E;stroke-width:1;stroke-linejoin:miter;stroke-miterlimit:10;"/><text x="108.085" y="26.5" fill="#000" font-size="13" textLength="71.563" font-family="'Helvetica'">Користувач</text><text x="474.143" y="26.5" fill="#000" font-size="13" textLength="127.474" font-family="'Helvetica'">Розширення «Півот»</text><text x="474.143" y="39.5" fill="#000" font-size="13" textLength="120.764" font-family="'Helvetica'">(оверлей + адаптер</text><text x="474.143" y="52.5" fill="#000" font-size="13" textLength="57.091" font-family="'Helvetica'">YouTube)</text><text x="1156.816" y="26.5" fill="#000" font-size="13" textLength="130.108" font-family="'Helvetica'">API сервісу та модулі</text><text x="1156.816" y="39.5" fill="#000" font-size="13" textLength="121.729" font-family="'Helvetica'">(контент, навчання,</text><text x="1156.816" y="52.5" fill="#000" font-size="13" textLength="115.623" font-family="'Helvetica'">тарифи, інтеграції)</text><text x="1641.651" y="26.5" fill="#000" font-size="13" textLength="158.399" font-family="'Helvetica'">Сервіс субтитрів YouTube</text><text x="1902.939" y="26.5" fill="#000" font-size="13" textLength="149.367" font-family="'Helvetica'">Зовнішній постачальник</text><text x="1902.939" y="39.5" fill="#000" font-size="13" textLength="69.773" font-family="'Helvetica'">ШІ-функцій</text><?plantuml-src pLfRJrlP5NxthzYQUHXG2G93I8BJZ7B1waZJqKYPUQYQFdZWX5WnDZ8cJ5ig0IQGIX6eAJ9IHqrcffMcKbySnuuTNwLvxDCvVo6_fElxrZx7nyU6f1AK10NixRtNVNrhhNtyYN5_SilUjhVZDjskMt4RxXl3FrKpRTogLtBBxYjlItwttGONl4EtvJrrEsuNnxoISRzplv-TDzwkRAgxPVFplzsgaEZA2L3io1RPMNHV2fE6dDXo6p-tp1Xf7PlfI_5huvEnJupxN7Pi2SEw76igkJTkImYc5WlfH-d2xoTNrrSomcY7524IkFVaIDNj2UbjIYXoWSfhfL8wTJlOGiSt4yPzwTRSkk6vAhKxDYAAd94t3VkI6XSdZVj2FjyX7nph696puJrnQ-3VyWwDjmzLXIS-ZfYhxbQ44kY0_TzKC37JjcnhgWEU2xsQsvIb4juUmVYq75taxOkuuXInQK_CupvpVxmKdxaK5tA_FCD_aEuxgj1508Ww-DiHZXG4owAXURjRcbMBYF-AiB_8M7xVs7b9XtVSchTzINmZXBqzlF6AOFz25cf2iYrBEsHDnYqDMU_fF8BjXP2eG1Y9ghTRHmZVcj3TbZDRDFMsKKvGeYZSQbIZfchKnMqDikc83mvz1p87Ak96koxIC1AwE2_os03H41VbL3PXYYqLyAkec5nuvNOD4wmZQjJmsojo0ScWGGMZ2Rko6LjDFyeLrjQ_MPjSpAsCmmn_ES58y-RhsrEpvktUCxoup1TZykgAKRTXTSv-F3qtRgs31B1_9CIs65axL9bBDRSBdb3eDxdrhzQ_SPXKIA6M-dR2Y1-R27PuJnogaG-JQdh9LjXztojwHt2JQ7Z8Czn4LP3RG8ZQ1vu3iRM7wUngAfzQCKlE_THwff3CPGjVf5OSyz6ldCmZfv1UJ7qKshNs8BMKsqXdbytzL6RD2NroCv_FRU3qtVGV73Cz7Vh8HpZpnvWnjrAB3vVpkVNiqkrS9fSt7oSNy8DFSlab9szNPsRcvgvYbNIZYtVIgPLSTccOrftatC9CQCD8alR3lh1nMRnRIEKBqPqB0ULWwLOgGkzFOVDif5SogQoZceQPNxjvQ-RsdAn-bIvad3xh6JclrU4_RUz80cA79KKY3Baik2kbfAcvnb8KDyYjdiHEXRdNbhSiS6MS6qUMxZBnsWom3b8JEQrl6efLIB864H-5KG5CiWU2L6m1wTfN951LAbf9QuIJrm6aACuG45iYpFJajB68Xb8ZeOoGdpSA7Gn-r2PYHHa908Y8uAajN4Du-gNOjl3rhp-tsTWMYOw0cKsArFQXIBLjAnGHh1Nqkc4Z-vjzGvSdGtxCvWhEK73TkPoyBC4LsHLsSlpApOMvgSYES4v0iR-BXbMQe0MdgGtnzXM10pO4aeLiZKhKS7lc-lNSUc5rlN3ZXWH5LxnOP6WGJtgYsI7tDGMNTkZhfhbxv_Fn2J3j2boLy14Gpgy5yBAsAISo54MK7quA1P6HvD_1axN_1nWVNOInXBNRy4jjmyopN003TswWY8NUNqUO1-wUdenFnUSchyeY0i-4wXiXcP3h7VXWJExFWWGQCAuKKzPBgxkeqG-gDdSSU4S3vSqxW6bAh4i7J0FQlC82To2OCusV2PPGu-r9mDh8gchSKk4EbgMvE_OUGuc8qAHgWiGbdv76HNL2G3FySOPb5qdIfJdQLFslI4KSCukfDKSxLcQhkWr6OEuRBJNqJOzXqPKc0zmK7tH9TXdj6hLK1Isew5gQHvaYDn46t6Y7Gxxr-qkrQBzpXM0W14jMmDnxCb1AWvGKVSnQ8RSweNrH9N2FRMYg6gxULX0Wmdpiiqp6MKvbRkQNrrUSR67XsqLdjP3EPH5HoK8wuzpTI1SM7tonlkJOdg4ATquE09cPcRmyqCkoNwCAXsm2cz5UdEeqkT3hGoz30QgWYT2y4wKKK0Fa4IMbziGsFqxE9gycRsrAnp3KEctYurl9AydufllzYCPki5EybnqZsi8-aEMD-GMQfghyxsaotilQzcUSbED2UNRpvfUVcN1dYTf206qpMue87P0UwFKcs4sncxJ8Cd4lgwal4kwwZGdsbjnEV4VSUCVAzuxmlRBf_X3kPWUcAIQi5PKdaibh2xSttMD_-X8xsC3i1VcspqXvgZbpB-l-ozsxvEqAsOvuQ0-xDsEn4yoilfWN_0Xra4GHnIrYc8Ima0qwoe5-CW7IP-sYUL6ORILbqGYJbDaoseitB9heNDOG-wja7Pfn5z3luswe4KwGRDdstDjMKJGNb1eu4GrpeJpidX35Vec25TxNhRwrgnJotIAK_0v3xTNH1RONvsJzvtrCL0a7u4n40gEUBo_3Yi1eAteYgAGnj0Gcdrv-K13i_97zZWm66cZWVI_xMvs-0mGMqFvTB9Q-BqN_9mJY4Ll0KF1fEwV64uOIcI7fT7ABoFFfk2aySB9Ire_6fISzUuiPCszfwft7AAjfrY1PcLiDg2goIngRjt_-PtpAJ4rD6JjEDI588kR8p25cwB2zArlX_y-e1TLG2GxP7jYSgUXWg9NQtgGy7T2NkjcgnuHZ2zAnmAD96-bemhsQXdVBTqw2NXi9O9IF6MrlQVoKyaMs9FhYz45kqCDWWleRSx9BwVldaLX1KFDw1RbG6NbnO516EL5KYBoHEFBXWeCINAu8APe7FLKZ2Fa-g_CB_Ny8nKErQ4Zm8TGO9NWzWdvsNqIRS2gOY4ONa0-utDpdfMDh82EaQsjG--O9kQ16jJC5kZzrBkJlwUrB-8Qf9cugCohPmedwn_vD3rdwLX-sR8Jzfp0Kc-EnePqwOmY95iVS1ZEP63yeKrilkKGccRk5t4LO_gHOi_FPe6QYKbqlYqyphRMANJ5zh9sWQqRD4MY5eeF4HLhaMVWEGskB3afLZXIpyMimXI7OihXmufASFtqoIbZoBwnPWswb4i5DX5-0y7KX1F4EmbSp3JzAGzVrakdAWP1xkYCmOK4rtnKHJmCoBKegYFPquyKv9U-iEga2NyA4UWTI8bwe4QsnNrca37S5KSJtBwG7ZJ0gvwaFhuDaRWptfYh76KmHla8lmgnjoBrBXq7fV9akm3b4y6Y36mqfy8dw9TJM-dIEU1zHz2UHo04x-GwN0e0Iio1e50EW0HBtytAeOYP2yMKs7iXyxxSK-j2gmRzQMJfiqeVrAaMwKEaLqclI7FE6SXotUAYqFinZQ7ffgRmwnLX3VGglQaFWozHbVYVE9Dyx1AKF9kVxMT4Mig4QRvydlUGJrIuVfahUQ-i_AlUmMJCpEkP6hwlHSqTHVSbPpgUMd2KVmCyewqVdVBGpxUiegINKuD0d339UnWzxKWfKuW8zDXJPOGL6OUpfCIs3WxPgvpT2wB0ZR47fVyd6eRATUA_PV0Jnw8G-4Ads8d0eK4MUaoErFwmCaHht1r0-kQc7nhjWdpypT37outfLJth7UZCRF9qUWQNXgU9zMTTjirIc3tpM8M6G5Q_zcGOHF8gnniVzNFxXkKrbprZV0YWo30RUQqUljGRksBGlrgR5FYBmPtR3xuBWAmEy5cOr6tL1rlCbzHuFtBz1NPDQJgMp7yxWLhTV72ZozhxbNsPOyA9X-QoknMcLxkHjmowV0zG8SweYloE3xn7OHzt4yaOYYAA1uIzwwGUHOBmWd8OPcNVmaPWo3AXpWft-Tm5sVED5lW2WaUL_im2G4xue57C-Jk1v2QW_Pa7Q3o2KJjlZSrxzrXAV5aXpPQid7c--HXPtWoyM-VwtQMwVR_hHvp--2JzenVcWpuXXyFWl?></g></svg>