<svg xmlns="http://www.w3.org/2000/svg" xmlns:xlink="http://www.w3.org/1999/xlink" version="1.1" data-diagram-type="DESCRIPTION" style="width:1821px;height:898px;background:#FFFFFF;" width="1821px" height="898px" viewBox="0 0 1821 898" zoomAndPan="magnify" preserveAspectRatio="none" contentStyleType="text/css"><?plantuml 1.2026.8?><defs/><g font-family="sans-serif" lengthAdjust="spacing"><!--cluster Сервіс «Півот» (фрагмент: доступ, матеріали, словник, тариф)--><g class="cluster" data-qualified-name="...... ....... .......... ....... .......... ........ ......" id="ent0009" data-source-line="33"><rect x="46.73" y="490.72" width="1622" height="393.65" fill="none" style="stroke:#181818;stroke-width:1;" rx="2.5" ry="2.5"/><text x="638.303" y="503.5" fill="#000" font-size="14" textLength="438.854" font-weight="700" font-family="'Helvetica'">Сервіс «Півот» (фрагмент: доступ, матеріали, словник, тариф)</text></g><!--entity UC01--><g class="entity" data-qualified-name="...... ....... .......... ....... .......... ........ .......UC01" id="ent0010" data-source-line="34"><ellipse cx="1587.73" cy="553.127" rx="64.53" ry="25.687" fill="#FEFEFE" style="stroke:#33668E;stroke-width:0.5;"/><text x="1569.834" y="541.921" fill="#000" font-size="14" textLength="35.793" font-family="'Helvetica'">UC01</text><text x="1530.777" y="555.921" fill="#000" font-size="14" textLength="113.907" font-family="'Helvetica'">Зареєструватися</text><text x="1560.219" y="569.921" fill="#000" font-size="14" textLength="55.022" font-family="'Helvetica'">в сервісі</text></g><!--entity UC02--><g class="entity" data-qualified-name="...... ....... .......... ....... .......... ........ .......UC02" id="ent0011" data-source-line="35"><ellipse cx="1586.727" cy="701.627" rx="66.017" ry="20.777" fill="#FEFEFE" style="stroke:#33668E;stroke-width:0.5;"/><text x="1568.831" y="695.082" fill="#000" font-size="14" textLength="35.793" font-family="'Helvetica'">UC02</text><text x="1537.098" y="709.082" fill="#000" font-size="14" textLength="99.258" font-family="'Helvetica'">Увійти в сервіс</text></g><!--entity UC02a--><g class="entity" data-qualified-name="...... ....... .......... ....... .......... ........ .......UC02a" id="ent0012" data-source-line="36"><ellipse cx="775.727" cy="838.553" rx="63.527" ry="28.554" fill="#FEFEFE" style="stroke:#33668E;stroke-width:0.5;"/><text x="751.993" y="825.546" fill="#000" font-size="14" textLength="47.469" font-family="'Helvetica'">UC02.1</text><text x="725.986" y="839.546" fill="#000" font-size="14" textLength="99.483" font-family="'Helvetica'">Увійти поштою</text><text x="733.956" y="853.546" fill="#000" font-size="14" textLength="83.542" font-family="'Helvetica'">або паролем</text></g><!--entity UC02b--><g class="entity" data-qualified-name="...... ....... .......... ....... .......... ........ .......UC02b" id="ent0013" data-source-line="37"><ellipse cx="1577.735" cy="838.554" rx="74.675" ry="29.824" fill="#FEFEFE" style="stroke:#33668E;stroke-width:0.5;"/><text x="1554.001" y="823.743" fill="#000" font-size="14" textLength="47.469" font-family="'Helvetica'">UC02.2</text><text x="1535.116" y="837.743" fill="#000" font-size="14" textLength="85.237" font-family="'Helvetica'">Увійти через</text><text x="1521.622" y="851.743" fill="#000" font-size="14" textLength="112.226" font-family="'Helvetica'">зовнішній акаунт</text></g><!--entity UC03--><g class="entity" data-qualified-name="...... ....... .......... ....... .......... ........ .......UC03" id="ent0014" data-source-line="38"><ellipse cx="366.732" cy="553.127" rx="89.932" ry="25.217" fill="#FEFEFE" style="stroke:#33668E;stroke-width:0.5;"/><text x="348.835" y="542.374" fill="#000" font-size="14" textLength="35.793" font-family="'Helvetica'">UC03</text><text x="284.564" y="556.374" fill="#000" font-size="14" textLength="164.336" font-family="'Helvetica'">Налаштувати параметри</text><text x="335.625" y="570.374" fill="#000" font-size="14" textLength="62.214" font-family="'Helvetica'">вивчення</text></g><!--entity UC12--><g class="entity" data-qualified-name="...... ....... .......... ....... .......... ........ .......UC12" id="ent0015" data-source-line="39"><ellipse cx="733.734" cy="553.133" rx="81.364" ry="25.253" fill="#FEFEFE" style="stroke:#33668E;stroke-width:0.5;"/><text x="715.837" y="542.271" fill="#000" font-size="14" textLength="35.793" font-family="'Helvetica'">UC12</text><text x="659.783" y="556.271" fill="#000" font-size="14" textLength="147.902" font-family="'Helvetica'">Завантажити власний</text><text x="704.425" y="570.271" fill="#000" font-size="14" textLength="58.618" font-family="'Helvetica'">матеріал</text></g><!--entity UC13--><g class="entity" data-qualified-name="...... ....... .......... ....... .......... ........ .......UC13" id="ent0016" data-source-line="40"><ellipse cx="1423.73" cy="701.631" rx="80.54" ry="25.291" fill="#FEFEFE" style="stroke:#33668E;stroke-width:0.5;"/><text x="1405.834" y="690.655" fill="#000" font-size="14" textLength="35.793" font-family="'Helvetica'">UC13</text><text x="1350.681" y="704.655" fill="#000" font-size="14" textLength="146.098" font-family="'Helvetica'">Читати власний текст</text><text x="1393.471" y="718.655" fill="#000" font-size="14" textLength="60.519" font-family="'Helvetica'">у читалці</text></g><!--entity UC14--><g class="entity" data-qualified-name="...... ....... .......... ....... .......... ........ .......UC14" id="ent0017" data-source-line="41"><ellipse cx="1089.726" cy="701.631" rx="90.206" ry="25.291" fill="#FEFEFE" style="stroke:#33668E;stroke-width:0.5;"/><text x="1071.829" y="690.655" fill="#000" font-size="14" textLength="35.793" font-family="'Helvetica'">UC14</text><text x="1007.571" y="704.655" fill="#000" font-size="14" textLength="164.309" font-family="'Helvetica'">Працювати зі словником</text><text x="1055.693" y="718.655" fill="#000" font-size="14" textLength="68.065" font-family="'Helvetica'">за темами</text></g><!--entity UC15--><g class="entity" data-qualified-name="...... ....... .......... ....... .......... ........ .......UC15" id="ent0018" data-source-line="42"><ellipse cx="1273.73" cy="553.127" rx="72.52" ry="25.847" fill="#FEFEFE" style="stroke:#33668E;stroke-width:0.5;"/><text x="1255.834" y="541.55" fill="#000" font-size="14" textLength="35.793" font-family="'Helvetica'">UC15</text><text x="1209.831" y="555.55" fill="#000" font-size="14" textLength="127.798" font-family="'Helvetica'">Розкласти словник</text><text x="1239.698" y="569.55" fill="#000" font-size="14" textLength="68.065" font-family="'Helvetica'">за темами</text></g><!--entity UC16--><g class="entity" data-qualified-name="...... ....... .......... ....... .......... ........ .......UC16" id="ent0019" data-source-line="43"><ellipse cx="933.725" cy="553.13" rx="103.095" ry="29.41" fill="#FEFEFE" style="stroke:#33668E;stroke-width:0.5;"/><text x="915.829" y="537.645" fill="#000" font-size="14" textLength="35.793" font-family="'Helvetica'">UC16</text><text x="889.377" y="551.645" fill="#000" font-size="14" textLength="88.696" font-family="'Helvetica'">Пройти сесію</text><text x="854.135" y="565.645" fill="#000" font-size="14" textLength="159.182" font-family="'Helvetica'">інтервальних повторень</text></g><!--entity UC17--><g class="entity" data-qualified-name="...... ....... .......... ....... .......... ........ .......UC17" id="ent0020" data-source-line="44"><ellipse cx="1434.732" cy="553.129" rx="72.142" ry="25.579" fill="#FEFEFE" style="stroke:#33668E;stroke-width:0.5;"/><text x="1416.835" y="541.819" fill="#000" font-size="14" textLength="35.793" font-family="'Helvetica'">UC17</text><text x="1370.426" y="555.819" fill="#000" font-size="14" textLength="128.611" font-family="'Helvetica'">Пройти тест обсягу</text><text x="1403.778" y="569.819" fill="#000" font-size="14" textLength="61.906" font-family="'Helvetica'">словника</text></g><!--entity UC18--><g class="entity" data-qualified-name="...... ....... .......... ....... .......... ........ .......UC18" id="ent0021" data-source-line="45"><ellipse cx="554.734" cy="553.134" rx="81.764" ry="25.414" fill="#FEFEFE" style="stroke:#33668E;stroke-width:0.5;"/><text x="536.838" y="541.806" fill="#000" font-size="14" textLength="35.793" font-family="'Helvetica'">UC18</text><text x="480.94" y="555.806" fill="#000" font-size="14" textLength="147.588" font-family="'Helvetica'">Оформити й керувати</text><text x="520.394" y="569.806" fill="#000" font-size="14" textLength="68.681" font-family="'Helvetica'">підпискою</text></g><!--entity UC19--><g class="entity" data-qualified-name="...... ....... .......... ....... .......... ........ .......UC19" id="ent0022" data-source-line="46"><ellipse cx="1118.734" cy="553.126" rx="66.284" ry="25.136" fill="#FEFEFE" style="stroke:#33668E;stroke-width:0.5;"/><text x="1100.838" y="542.626" fill="#000" font-size="14" textLength="35.793" font-family="'Helvetica'">UC19</text><text x="1058.698" y="556.626" fill="#000" font-size="14" textLength="120.073" font-family="'Helvetica'">Подивитися схожі</text><text x="1099.594" y="570.626" fill="#000" font-size="14" textLength="38.281" font-family="'Helvetica'">слова</text></g><!--entity UC20--><g class="entity" data-qualified-name="...... ....... .......... ....... .......... ........ .......UC20" id="ent0023" data-source-line="47"><ellipse cx="161.728" cy="553.129" rx="99.488" ry="26.23" fill="#FEFEFE" style="stroke:#33668E;stroke-width:0.5;"/><text x="143.832" y="540.803" fill="#000" font-size="14" textLength="35.793" font-family="'Helvetica'">UC20</text><text x="74.502" y="554.803" fill="#000" font-size="14" textLength="174.453" font-family="'Helvetica'">Призначити тариф вручну</text><text x="107.253" y="568.803" fill="#000" font-size="14" textLength="108.951" font-family="'Helvetica'">(поза production)</text></g><!--entity UC07--><g class="entity" data-qualified-name="...... ....... .......... ....... .......... ........ .......UC07" id="ent0024" data-source-line="48"><ellipse cx="1261.731" cy="701.632" rx="65.411" ry="26.092" fill="#EEE" style="stroke:#33668E;stroke-width:0.5;"/><text x="1243.834" y="690.01" fill="#000" font-size="14" textLength="35.793" font-family="'Helvetica'">UC07</text><text x="1204.975" y="704.01" fill="#000" font-size="14" textLength="113.511" font-family="'Helvetica'">Позначити слово</text><text x="1229.964" y="718.01" fill="#000" font-size="14" textLength="63.533" font-family="'Helvetica'">як відоме</text></g><!--entity User--><g class="entity" data-qualified-name="User" id="ent0001" data-source-line="24"><ellipse cx="1618.725" cy="30.22" rx="8" ry="8" fill="#F1F1F1" style="stroke:#33668E;stroke-width:0.5;"/><path d="M1618.725,38.22 L1618.725,65.22 M1605.725,46.22 L1631.725,46.22 M1618.725,65.22 L1605.725,80.22 M1618.725,65.22 L1631.725,80.22" style="stroke:#33668E;stroke-width:0.5;" fill="none"/><text x="1554.57" y="92.5" fill="#000" font-size="14" textLength="128.311" font-family="'Helvetica'">Користувач сервісу</text><text x="1569.178" y="18.5" fill="#000" font-size="14" textLength="99.094" font-style="italic" font-family="'Helvetica'">«абстрактний»</text></g><!--entity Guest--><g class="entity" data-qualified-name="Guest" id="ent0002" data-source-line="25"><ellipse cx="1502.725" cy="361.22" rx="8" ry="8" fill="#F1F1F1" style="stroke:#33668E;stroke-width:0.5;"/><path d="M1502.725,369.22 L1502.725,396.22 M1489.725,377.22 L1515.725,377.22 M1502.725,396.22 L1489.725,411.22 M1502.725,396.22 L1515.725,411.22" style="stroke:#33668E;stroke-width:0.5;" fill="none"/><text x="1487.04" y="423.5" fill="#000" font-size="14" textLength="31.37" font-family="'Helvetica'">Гість</text></g><!--entity Reg--><g class="entity" data-qualified-name="Reg" id="ent0003" data-source-line="26"><ellipse cx="1259.727" cy="185.22" rx="8" ry="8" fill="#F1F1F1" style="stroke:#33668E;stroke-width:0.5;"/><path d="M1259.727,193.22 L1259.727,220.22 M1246.727,201.22 L1272.727,201.22 M1259.727,220.22 L1246.727,235.22 M1259.727,220.22 L1272.727,235.22" style="stroke:#33668E;stroke-width:0.5;" fill="none"/><text x="1205.31" y="247.5" fill="#000" font-size="14" textLength="108.835" font-family="'Helvetica'">Зареєстрований</text><text x="1205.31" y="261.5" fill="#000" font-size="14" textLength="75.4" font-family="'Helvetica'">користувач</text></g><!--entity Sub--><g class="entity" data-qualified-name="Sub" id="ent0004" data-source-line="27"><ellipse cx="1149.725" cy="354.22" rx="8" ry="8" fill="#F1F1F1" style="stroke:#33668E;stroke-width:0.5;"/><path d="M1149.725,362.22 L1149.725,389.22 M1136.725,370.22 L1162.725,370.22 M1149.725,389.22 L1136.725,404.22 M1149.725,389.22 L1162.725,404.22" style="stroke:#33668E;stroke-width:0.5;" fill="none"/><text x="1109.94" y="416.5" fill="#000" font-size="14" textLength="77.068" font-family="'Helvetica'">Користувач</text><text x="1109.94" y="430.5" fill="#000" font-size="14" textLength="79.57" font-family="'Helvetica'">з підпискою</text></g><!--entity Admin--><g class="entity" data-qualified-name="Admin" id="ent0005" data-source-line="28"><ellipse cx="52.727" cy="361.22" rx="8" ry="8" fill="#F1F1F1" style="stroke:#33668E;stroke-width:0.5;"/><path d="M52.727,369.22 L52.727,396.22 M39.727,377.22 L65.727,377.22 M52.727,396.22 L39.727,411.22 M52.727,396.22 L65.727,411.22" style="stroke:#33668E;stroke-width:0.5;" fill="none"/><text x="6" y="423.5" fill="#000" font-size="14" textLength="93.454" font-family="'Helvetica'">Адміністратор</text></g><!--entity Mail--><g class="entity" data-qualified-name="Mail" id="ent0025" data-source-line="51"><ellipse cx="497.731" cy="368.22" rx="8" ry="8" fill="#F1F1F1" style="stroke:#33668E;stroke-width:0.5;"/><path d="M497.731,376.22 L497.731,403.22 M484.731,384.22 L510.731,384.22 M497.731,403.22 L484.731,418.22 M497.731,403.22 L510.731,418.22" style="stroke:#33668E;stroke-width:0.5;" fill="none"/><text x="441.82" y="430.5" fill="#000" font-size="14" textLength="111.822" font-family="'Helvetica'">Поштовий сервіс</text><text x="430.12" y="356.5" fill="#000" font-size="14" textLength="135.222" font-style="italic" font-family="'Helvetica'">«зовнішня система»</text></g><!--entity OAuth--><g class="entity" data-qualified-name="OAuth" id="ent0026" data-source-line="52"><ellipse cx="1610.729" cy="368.22" rx="8" ry="8" fill="#F1F1F1" style="stroke:#33668E;stroke-width:0.5;"/><path d="M1610.729,376.22 L1610.729,403.22 M1597.729,384.22 L1623.729,384.22 M1610.729,403.22 L1597.729,418.22 M1610.729,403.22 L1623.729,418.22" style="stroke:#33668E;stroke-width:0.5;" fill="none"/><text x="1534.3" y="430.5" fill="#000" font-size="14" textLength="152.858" font-family="'Helvetica'">Провайдер авторизації</text><text x="1543.118" y="356.5" fill="#000" font-size="14" textLength="135.222" font-style="italic" font-family="'Helvetica'">«зовнішня система»</text></g><!--entity Pay--><g class="entity" data-qualified-name="Pay" id="ent0027" data-source-line="53"><ellipse cx="689.728" cy="368.22" rx="8" ry="8" fill="#F1F1F1" style="stroke:#33668E;stroke-width:0.5;"/><path d="M689.728,376.22 L689.728,403.22 M676.728,384.22 L702.728,384.22 M689.728,403.22 L676.728,418.22 M689.728,403.22 L702.728,418.22" style="stroke:#33668E;stroke-width:0.5;" fill="none"/><text x="616.72" y="430.5" fill="#000" font-size="14" textLength="146.016" font-family="'Helvetica'">Платіжний провайдер</text><text x="622.117" y="356.5" fill="#000" font-size="14" textLength="135.222" font-style="italic" font-family="'Helvetica'">«зовнішня система»</text></g><!--entity Ai--><g class="entity" data-qualified-name="Ai" id="ent0028" data-source-line="54"><ellipse cx="1273.731" cy="368.22" rx="8" ry="8" fill="#F1F1F1" style="stroke:#33668E;stroke-width:0.5;"/><path d="M1273.731,376.22 L1273.731,403.22 M1260.731,384.22 L1286.731,384.22 M1273.731,403.22 L1260.731,418.22 M1273.731,403.22 L1286.731,418.22" style="stroke:#33668E;stroke-width:0.5;" fill="none"/><text x="1241.503" y="430.5" fill="#000" font-size="14" textLength="64.456" font-family="'Helvetica'">Сервіс ШІ</text><text x="1206.12" y="356.5" fill="#000" font-size="14" textLength="135.222" font-style="italic" font-family="'Helvetica'">«зовнішня система»</text></g><!--reverse link User to Guest--><g class="link" data-entity-1="ent0001" data-entity-2="ent0002" id="lnk6" data-source-line="29" data-link-type="extension"><path d="M1597.926,112.964 C1574.856,179.794 1536.83,289.92 1515.29,352.33" style="stroke:#181818;stroke-width:1;" fill="none" id="User-backto-Guest"/><polygon points="1603.8,95.95,1592.255,111.007,1603.598,114.922,1603.8,95.95" fill="none" style="stroke:#181818;stroke-width:1;stroke-linejoin:miter;stroke-miterlimit:10;"/></g><!--reverse link User to Reg--><g class="link" data-entity-1="ent0001" data-entity-2="ent0003" id="lnk7" data-source-line="30" data-link-type="extension"><path d="M1537.809,90.361 C1469.379,122.191 1378.82,164.32 1314.41,194.28" style="stroke:#181818;stroke-width:1;" fill="none" id="User-backto-Reg"/><polygon points="1554.13,82.77,1535.279,84.921,1540.34,95.802,1554.13,82.77" fill="none" style="stroke:#181818;stroke-width:1;stroke-linejoin:miter;stroke-miterlimit:10;"/></g><!--reverse link Reg to Sub--><g class="link" data-entity-1="ent0003" data-entity-2="ent0004" id="lnk8" data-source-line="31" data-link-type="extension"><path d="M1221.211,280.193 C1204.921,304.933 1194.47,320.79 1178.2,345.49" style="stroke:#181818;stroke-width:1;" fill="none" id="Reg-backto-Sub"/><polygon points="1231.11,265.16,1216.2,276.894,1226.222,283.493,1231.11,265.16" fill="none" style="stroke:#181818;stroke-width:1;stroke-linejoin:miter;stroke-miterlimit:10;"/></g><!--reverse link UC02 to UC02a--><g class="link" data-entity-1="ent0011" data-entity-2="ent0012" id="lnk29" data-source-line="56" data-link-type="extension"><path d="M1528.178,723.886 C1517.678,727.416 1523.41,725.14 1512.73,727.72 C1266.6,787.28 965.96,819.97 838.08,832.06" style="stroke:#181818;stroke-width:1;" fill="none" id="UC02-backto-UC02a"/><polygon points="1545.24,718.15,1526.266,718.198,1530.09,729.573,1545.24,718.15" fill="none" style="stroke:#181818;stroke-width:1;stroke-linejoin:miter;stroke-miterlimit:10;"/></g><!--reverse link UC02 to UC02b--><g class="link" data-entity-1="ent0011" data-entity-2="ent0013" id="lnk30" data-source-line="57" data-link-type="extension"><path d="M1584.178,740.79 C1582.658,763.5 1581.39,782.62 1579.67,808.46" style="stroke:#181818;stroke-width:1;" fill="none" id="UC02-backto-UC02b"/><polygon points="1585.38,722.83,1578.191,740.389,1590.165,741.19,1585.38,722.83" fill="none" style="stroke:#181818;stroke-width:1;stroke-linejoin:miter;stroke-miterlimit:10;"/></g><!--link Guest to UC01--><g class="link" data-entity-1="ent0002" data-entity-2="ent0010" id="lnk31" data-source-line="59" data-link-type="association"><path d="M1518.71,421.08 C1534.97,451.94 1559.84,499.17 1574.87,527.7" style="stroke:#181818;stroke-width:1;" fill="none" id="Guest-UC01"/></g><!--link Reg to UC02--><g class="link" data-entity-1="ent0003" data-entity-2="ent0011" id="lnk32" data-source-line="60" data-link-type="association"><path d="M1314.6,229.13 C1420.94,244.75 1648.66,284.68 1694.73,345.72 C1776.4,453.93 1650.74,624.15 1603.49,681.24" style="stroke:#181818;stroke-width:1;" fill="none" id="Reg-UC02"/></g><!--link Reg to UC03--><g class="link" data-entity-1="ent0003" data-entity-2="ent0014" id="lnk33" data-source-line="61" data-link-type="association"><path d="M1205.03,222.15 C1037.64,224.61 536.61,240.76 420.73,345.72 C368.56,392.96 364.08,483.78 365.24,527.46" style="stroke:#181818;stroke-width:1;" fill="none" id="Reg-UC03"/></g><!--link Reg to UC12--><g class="link" data-entity-1="ent0003" data-entity-2="ent0015" id="lnk34" data-source-line="62" data-link-type="association"><path d="M1204.99,247.27 C1155.39,271.03 1080.78,308.3 1018.73,345.72 C927.71,400.6 908.22,419.57 822.73,482.72 C802.24,497.85 779.61,515.51 762.29,529.23" style="stroke:#181818;stroke-width:1;" fill="none" id="Reg-UC12"/></g><!--link Reg to UC13--><g class="link" data-entity-1="ent0003" data-entity-2="ent0016" id="lnk35" data-source-line="63" data-link-type="association"><path d="M1314.6,223.06 C1426.09,227.06 1672.94,242.86 1724.73,304.72 C1806.07,401.87 1751.32,493.94 1660.73,582.54 C1609.62,632.52 1533.16,665.35 1481,683.43" style="stroke:#181818;stroke-width:1;" fill="none" id="Reg-UC13"/></g><!--link Reg to UC14--><g class="link" data-entity-1="ent0003" data-entity-2="ent0017" id="lnk36" data-source-line="64" data-link-type="association"><path d="M1314.27,225.96 C1424.2,235.33 1667.86,260.57 1737.73,304.72 C1802.08,345.38 1792.88,406.68 1758.73,474.72 C1708.79,574.2 1672.75,601.64 1566.73,635.54 C1405.81,686.98 1355.03,645.82 1188.73,675.54 C1177.03,677.63 1164.68,680.34 1152.81,683.21" style="stroke:#181818;stroke-width:1;" fill="none" id="Reg-UC14"/></g><!--link Reg to UC16--><g class="link" data-entity-1="ent0003" data-entity-2="ent0019" id="lnk37" data-source-line="65" data-link-type="association"><path d="M1204.98,259.99 C1173.37,283.2 1133.69,314.32 1101.73,345.72 C1042.23,404.16 983.12,482.8 953.42,524.11" style="stroke:#181818;stroke-width:1;" fill="none" id="Reg-UC16"/></g><!--link Reg to UC17--><g class="link" data-entity-1="ent0003" data-entity-2="ent0020" id="lnk38" data-source-line="66" data-link-type="association"><path d="M1295.58,264.98 C1313.59,288.03 1334.89,317.4 1350.73,345.72 C1385.56,408.02 1413.82,487.73 1426.88,527.4" style="stroke:#181818;stroke-width:1;" fill="none" id="Reg-UC17"/></g><!--link Reg to UC18--><g class="link" data-entity-1="ent0003" data-entity-2="ent0021" id="lnk39" data-source-line="67" data-link-type="association"><path d="M1204.84,224.8 C1064.08,233.82 695.31,264.8 608.73,345.72 C595.3,358.27 570.23,475.45 559.64,527.46" style="stroke:#181818;stroke-width:1;" fill="none" id="Reg-UC18"/></g><!--link Sub to UC15--><g class="link" data-entity-1="ent0004" data-entity-2="ent0018" id="lnk40" data-source-line="68" data-link-type="association"><path d="M1182.96,433.97 C1206.06,464.04 1236,503.02 1255.05,527.81" style="stroke:#181818;stroke-width:1;" fill="none" id="Sub-UC15"/></g><!--link Sub to UC19--><g class="link" data-entity-1="ent0004" data-entity-2="ent0022" id="lnk41" data-source-line="69" data-link-type="association"><path d="M1141.42,433.97 C1135.64,464.04 1128.16,503.02 1123.4,527.81" style="stroke:#181818;stroke-width:1;" fill="none" id="Sub-UC19"/></g><!--link Admin to UC20--><g class="link" data-entity-1="ent0005" data-entity-2="ent0023" id="lnk42" data-source-line="70" data-link-type="association"><path d="M77.19,426.94 C97.78,457.43 126.68,500.23 144.8,527.06" style="stroke:#181818;stroke-width:1;" fill="none" id="Admin-UC20"/></g><!--link Mail to UC01--><g class="link" data-entity-1="ent0025" data-entity-2="ent0010" id="lnk43" data-source-line="72" data-link-type="association"><path d="M566.57,421.23 C580.3,426.21 594.79,430.72 608.73,433.72 C805.85,476.1 1329.58,402.88 1514.73,482.72 C1537.21,492.41 1556.93,512.26 1570.19,528.26" style="stroke:#181818;stroke-width:1;" fill="none" id="Mail-UC01"/></g><!--link OAuth to UC01--><g class="link" data-entity-1="ent0026" data-entity-2="ent0010" id="lnk44" data-source-line="73" data-link-type="association"><path d="M1604.56,433.97 C1600.31,463.85 1594.79,502.54 1591.26,527.35" style="stroke:#181818;stroke-width:1;" fill="none" id="OAuth-UC01"/></g><!--link Mail to UC02a--><g class="link" data-entity-1="ent0025" data-entity-2="ent0012" id="lnk45" data-source-line="74" data-link-type="association"><path d="M428.63,394.75 C316.09,402.92 101.08,425.75 54.73,482.72 C26.73,517.13 29.12,546.31 54.73,582.54 C208.89,800.58 565.85,833.42 711.79,837.47" style="stroke:#181818;stroke-width:1;" fill="none" id="Mail-UC02a"/></g><!--link OAuth to UC02b--><g class="link" data-entity-1="ent0026" data-entity-2="ent0013" id="lnk46" data-source-line="75" data-link-type="association"><path d="M1639.87,433.79 C1648.32,448.64 1656.43,465.8 1660.73,482.72 C1687.55,588.25 1695.35,624.48 1660.73,727.72 C1649.94,759.9 1625.58,790.17 1606.03,810.75" style="stroke:#181818;stroke-width:1;" fill="none" id="OAuth-UC02b"/></g><!--link Pay to UC18--><g class="link" data-entity-1="ent0027" data-entity-2="ent0021" id="lnk47" data-source-line="76" data-link-type="association"><path d="M653.55,433.97 C628.24,464.23 595.39,503.51 574.68,528.27" style="stroke:#181818;stroke-width:1;" fill="none" id="Pay-UC18"/></g><!--link Mail to UC18--><g class="link" data-entity-1="ent0025" data-entity-2="ent0021" id="lnk48" data-source-line="77" data-link-type="association"><path d="M513,433.97 C523.62,464.04 537.39,503.02 546.14,527.81" style="stroke:#181818;stroke-width:1;" fill="none" id="Mail-UC18"/></g><!--link Ai to UC15--><g class="link" data-entity-1="ent0028" data-entity-2="ent0018" id="lnk49" data-source-line="78" data-link-type="association"><path d="M1273.73,433.97 C1273.73,463.67 1273.73,502.05 1273.73,526.88" style="stroke:#181818;stroke-width:1;" fill="none" id="Ai-UC15"/></g><!--link Ai to UC19--><g class="link" data-entity-1="ent0028" data-entity-2="ent0022" id="lnk50" data-source-line="79" data-link-type="association"><path d="M1232.19,433.97 C1202.78,464.6 1164.48,504.48 1140.76,529.18" style="stroke:#181818;stroke-width:1;" fill="none" id="Ai-UC19"/></g><!--link UC12 to UC13--><g class="link" data-entity-1="ent0015" data-entity-2="ent0016" id="lnk51" data-source-line="81" data-link-type="dependency"><path d="M788.12,572.25 C799.5,575.83 811.47,579.44 822.73,582.54 C923.03,610.16 948.45,616.49 1050.73,635.54 C1176.04,658.88 1209.99,649.29 1334.73,675.54 C1345.25,677.75 1351.532,679.228 1362.212,682.108" style="stroke:#181818;stroke-width:1;stroke-dasharray:7,7;" fill="none" id="UC12-to-UC13"/><polygon points="1367.04,683.41,1359.392,677.204,1362.212,682.108,1357.309,684.929,1367.04,683.41" fill="#181818" style="stroke:#181818;stroke-width:1;stroke-linejoin:miter;stroke-miterlimit:10;"/><text x="1051.73" y="632.01" fill="#000" font-size="11" textLength="47.094" font-family="'Helvetica'">«include»</text></g><!--link UC17 to UC07--><g class="link" data-entity-1="ent0020" data-entity-2="ent0024" id="lnk52" data-source-line="82" data-link-type="dependency"><path d="M1407.7,577.02 C1375.29,604.46 1325.116,646.948 1292.666,674.428" style="stroke:#181818;stroke-width:1;stroke-dasharray:7,7;" fill="none" id="UC17-to-UC07"/><polygon points="1288.85,677.66,1298.303,674.896,1292.666,674.428,1293.133,668.791,1288.85,677.66" fill="#181818" style="stroke:#181818;stroke-width:1;stroke-linejoin:miter;stroke-miterlimit:10;"/><text x="1354.41" y="632.01" fill="#000" font-size="11" textLength="47.094" font-family="'Helvetica'">«include»</text></g><!--link UC15 to UC14--><g class="link" data-entity-1="ent0018" data-entity-2="ent0017" id="lnk53" data-source-line="83" data-link-type="dependency"><path d="M1244.98,577.02 C1210.61,604.38 1157.342,646.795 1122.792,674.305" style="stroke:#181818;stroke-width:1;stroke-dasharray:7,7;" fill="none" id="UC15-to-UC14"/><polygon points="1118.88,677.42,1128.412,674.943,1122.792,674.305,1123.429,668.684,1118.88,677.42" fill="#181818" style="stroke:#181818;stroke-width:1;stroke-linejoin:miter;stroke-miterlimit:10;"/><text x="1188.24" y="632.01" fill="#000" font-size="11" textLength="45.262" font-family="'Helvetica'">«extend»</text></g><!--link UC19 to UC14--><g class="link" data-entity-1="ent0022" data-entity-2="ent0017" id="lnk54" data-source-line="84" data-link-type="dependency"><path d="M1113.87,578.65 C1108.52,605.69 1100.931,644.045 1095.571,671.125" style="stroke:#181818;stroke-width:1;stroke-dasharray:7,7;" fill="none" id="UC19-to-UC14"/><polygon points="1094.6,676.03,1100.271,667.978,1095.571,671.125,1092.424,666.424,1094.6,676.03" fill="#181818" style="stroke:#181818;stroke-width:1;stroke-linejoin:miter;stroke-miterlimit:10;"/><text x="1106.1" y="632.01" fill="#000" font-size="11" textLength="45.262" font-family="'Helvetica'">«extend»</text></g><!--link UC17 to UC02--><g class="link" data-entity-1="ent0020" data-entity-2="ent0011" id="lnk55" data-source-line="85" data-link-type="dependency"><path d="M1459.15,577.66 C1489.02,606.46 1535.43,651.19 1563.13,677.89" style="stroke:#181818;stroke-width:1;stroke-dasharray:7,7;" fill="none" id="UC17-to-UC02"/><polygon points="1566.73,681.36,1563.026,672.234,1563.13,677.89,1557.474,677.994,1566.73,681.36" fill="#181818" style="stroke:#181818;stroke-width:1;stroke-linejoin:miter;stroke-miterlimit:10;"/><text x="1516.28" y="632.01" fill="#000" font-size="11" textLength="45.262" font-family="'Helvetica'">«extend»</text></g><?plantuml-src bLPTJnj757tVNp4Y3qaai5W3Dg08YIBIllH3HRpbPR4tnCBiMlQwQPfMSWmXUK0uQf6HMZMqgTHMwil6O6pmbvHVCFCNyajwxftTzNf9eYGHi3DtxfapvzwvTsuA-PlqvMivL3Nfgph_7KXVuC-Gf-iOlDrlcYaXNycsxFEghdh6g-I8rgbZUQKEL5CrQ6LQo3Fuzl3JmgAXEX7oN3Mnondj0OIkWCLNDPuSg3h-jcYgAwzu_wvwGjl2UQ0QoyPDyUO_-G8sN-tHycbQsyFe2KPD4L1g1tWzsPqMC8Nx0rHW5G4ozFwRNWgGyc_P5Z3Zrn3iQ_fe13QKvnZqr27sWGxxJFeCXZPjVlqirOgTiofsgbJTBOgtjMEXzi0Vl032gEmdkzXKy-ZA4Ki0d7CMw3alEOIZxAW61K783fCZxLx3Yb57zk4m8EwRQxDPI4_4mQ73IWq5RKedbFrb3JuW29z9NE3WTUoGYDS9HvPeySeMLjBPIRHBCCL1wYGL92MEGZL8IpYIEjSEGC4IT-uKd5onchTNLkWCcsjcbjN-bSGYJc1v2DgqWNp9tAw8E0sFIKxiMkF88SKG0CWCLKOKcP_bgvdqt4pQC2ex1QTabQrTaRVlMzMYTzTrlA-iNLjCVM4NlxEzGiwQYgsgFB3oxiE2iotkMyMA7RCuRjwks2LXPcAJPSlPeSd5sTXaoShjMDlsXlUeQ8kodVCiPxiOXrejbzs7H6IZy8CjJ3Dc2Z94F3Q4-0mussMtwkJNtA9R5ZVkhjD_ihZbl5qEPkVcCfd5TUEd68gLys1v_DwLdbiIdYksNCzpeKo1I1PSnp2qunHY45qkQ4ety1bT55mS2YMczwQ4LH6R5RkCE59LuAMKvrT8IiwAbPK8xXVsGLQnr-TLk-95jXE-R6rr721GG7sDSC-9t_AG26DyQsz_Y2myEvJ1b7KZCZ7G4RjkLBSYrnUmwrnhXWVGXOrNhkPt2uwX3_dZp4n0V3mc4lZH0u8recW3-y-nN5ILJgbqKP5yqnEtagK2r_0SDds2qVH75AhfM9cwFSMn3dDd2fVUX089PGDjwgnK0_RMP4YREgJmJM2biVOlliANv2qIZg5REkcMCfEE8oe0BF0HJDnBQDBdi7C5ZC2iQsX96kWhRIx67OgsLWPydjDlgX7-k0r4g5i9r3cu_iu2-qHiB558Y-fscnEZIuf1-HRjgqjO23itYMgcjVWwaRazSL7LpIpeHa5-9-8S89e9BKtY-GzZ-E_0eLJGnR5-pr5xf0mlHUqzYC9g9bdE0_EKC_v07OtFtQ7ECv5g-EgpnBxUgA-xMOWxdy1TmDe_uDE19vFKqPg0_03SGW8k4z0SXc6drAF-XHJYcrlNgSZ7FIHuzLHtl5RmHk6E6S9d4l3P97oTuUlKwwceDT1Nzh3Jf29-29TDm2q2xgNQvttxOT2HZ5SSuoYziEhTnOaW4f1Bn92V6btkTS45fYR-5DCNgXcZ5n5RcaH9pmRdx4Bu0PN8WDouYb2N1aLwhj69Rx665ALIsSrNkK7S3j3Jiubxb0qu9h13LaCmf0T1y0uOqgKABqzMt5ZdV-XBKLq-3Gi5NxdBw_NcIwjGfCupUUz9bE19o7aLQq6dKMkvf8UBgb6123E4HF7rCuVHlrwjUWy-3PvJdPwd5y6TrE-d-8uC_Otrw9E0urr4_YiFT6CgV1I6GILFToTTKYV7w5VSqOGUczpB0bliUsxyRSRcpVZyVEmx4_lEnhuN3RJ8u7iXzhraS9_L8sIMmR4DEUbGXAEO2SU9st0QaZRSQhmG0yWLRXjzBf4wPbgaKYjy6B4SVv2IBHlOaA7NR0kXtppRxEyzsybhqzBxJH5YUiBqFm00?></g></svg>