<svg xmlns="http://www.w3.org/2000/svg" xmlns:xlink="http://www.w3.org/1999/xlink" version="1.1" data-diagram-type="CLASS" style="width:1794px;height:1289px;background:#FFFFFF;" width="1794px" height="1289px" viewBox="0 0 1794 1289" zoomAndPan="magnify" preserveAspectRatio="none" contentStyleType="text/css"><?plantuml 1.2026.8?><defs/><g font-family="sans-serif" lengthAdjust="spacing"><!--class КористувачСистеми--><g class="entity" data-qualified-name="................." id="ent0001" data-source-line="19"><rect x="799.75" y="7" width="295.447" height="194" fill="#FEFEFE" style="stroke:#33668E;stroke-width:0.5;" rx="2.5" ry="2.5"/><ellipse cx="855.949" cy="24" rx="12" ry="12" fill="#A9DCDF" style="stroke:#181818;stroke-width:1;"/><path d="M855.863,19.251 L854.641,24.621 L857.093,24.621 Z M854.281,16.878 L857.454,16.878 L860.996,30 L858.403,30 L857.594,26.757 L854.123,26.757 L853.332,30 L850.739,30 Z " fill="#000"/><text x="877.949" y="28.86" fill="#000" font-size="18" textLength="174.05" font-style="italic" font-family="'Helvetica'">КористувачСистеми</text><line x1="800.75" y1="41" x2="1094.197" y2="41" style="stroke:#33668E;stroke-width:0.5;"/><text x="805.75" y="58.86" fill="#000" font-size="18" textLength="78.021" font-family="'Helvetica'">#id: UUID</text><text x="805.75" y="76.86" fill="#000" font-size="18" textLength="110.048" font-family="'Helvetica'">#email: String</text><text x="805.75" y="94.86" fill="#000" font-size="18" textLength="163.459" font-family="'Helvetica'">#хешПароля: String</text><text x="805.75" y="112.86" fill="#000" font-size="18" textLength="225.8" font-family="'Helvetica'">#датаРеєстрації: DateTime</text><text x="805.75" y="130.86" fill="#000" font-size="18" textLength="192.146" font-family="'Helvetica'">#статусАкаунта: String</text><line x1="800.75" y1="139" x2="1094.197" y2="139" style="stroke:#33668E;stroke-width:0.5;"/><text x="805.75" y="156.86" fill="#000" font-size="18" textLength="265.825" font-family="'Helvetica'">+увійти(пароль: String): boolean</text><text x="805.75" y="174.86" fill="#000" font-size="18" textLength="283.447" font-family="'Helvetica'">+змінитиEmail(новий: String): void</text><text x="805.75" y="192.86" fill="#000" font-size="18" textLength="201.647" font-style="italic" font-family="'Helvetica'">+отриматиРоль(): String</text></g><!--class Читач--><g class="entity" data-qualified-name="....." id="ent0002" data-source-line="30"><rect x="7" y="436" width="474.946" height="194" fill="#FEFEFE" style="stroke:#33668E;stroke-width:0.5;" rx="2.5" ry="2.5"/><ellipse cx="214.511" cy="453" rx="12" ry="12" fill="#ADD1B2" style="stroke:#181818;stroke-width:1;"/><path d="M217.012,459.122 Q216.397,459.438 215.72,459.597 Q215.043,459.755 214.296,459.755 Q211.642,459.755 210.245,458.006 Q208.847,456.257 208.847,452.952 Q208.847,449.639 210.245,447.89 Q211.642,446.141 214.296,446.141 Q215.043,446.141 215.729,446.299 Q216.415,446.457 217.012,446.773 L217.012,449.656 Q216.344,449.041 215.716,448.755 Q215.087,448.47 214.419,448.47 Q212.996,448.47 212.271,449.599 Q211.545,450.729 211.545,452.952 Q211.545,455.167 212.271,456.296 Q212.996,457.426 214.419,457.426 Q215.087,457.426 215.716,457.14 Q216.344,456.854 217.012,456.239 Z " fill="#000"/><text x="236.511" y="457.86" fill="#000" font-size="18" textLength="50.924" font-family="'Helvetica'">Читач</text><line x1="8" y1="470" x2="480.946" y2="470" style="stroke:#33668E;stroke-width:0.5;"/><text x="13" y="487.86" fill="#000" font-size="18" textLength="93.05" font-family="'Helvetica'">-імʼя: String</text><text x="13" y="505.86" fill="#000" font-size="18" textLength="202.412" font-family="'Helvetica'">-моваІнтерфейсу: String</text><text x="13" y="523.86" fill="#000" font-size="18" textLength="238.052" font-family="'Helvetica'">-витраченоЗавантажень: int</text><text x="13" y="541.86" fill="#000" font-size="18" textLength="132.082" font-family="'Helvetica'">-googleId: String</text><line x1="8" y1="550" x2="480.946" y2="550" style="stroke:#33668E;stroke-width:0.5;"/><text x="13" y="567.86" fill="#000" font-size="18" textLength="297.483" font-family="'Helvetica'">+чиМаєАктивнуПідписку(): boolean</text><text x="13" y="585.86" fill="#000" font-size="18" textLength="457.585" font-family="'Helvetica'">+завантажитиВласнуКнигу(ф: ФайлКниги): Документ</text><text x="13" y="603.86" fill="#000" font-size="18" textLength="462.946" font-family="'Helvetica'">+поскаржитися(п: Публікація, причина: String): Скарга</text><text x="13" y="621.86" fill="#000" font-size="18" textLength="201.894" font-family="'Helvetica'">+отриматиРоль(): String</text></g><!--class МодераторКонтенту--><g class="entity" data-qualified-name="................." id="ent0003" data-source-line="41"><rect x="279.23" y="258" width="486.486" height="158" fill="#FEFEFE" style="stroke:#33668E;stroke-width:0.5;" rx="2.5" ry="2.5"/><ellipse cx="430.966" cy="275" rx="12" ry="12" fill="#ADD1B2" style="stroke:#181818;stroke-width:1;"/><path d="M433.467,281.122 Q432.852,281.438 432.175,281.597 Q431.498,281.755 430.751,281.755 Q428.097,281.755 426.699,280.006 Q425.302,278.257 425.302,274.952 Q425.302,271.639 426.699,269.89 Q428.097,268.141 430.751,268.141 Q431.498,268.141 432.184,268.299 Q432.869,268.457 433.467,268.773 L433.467,271.656 Q432.799,271.041 432.17,270.755 Q431.542,270.47 430.874,270.47 Q429.45,270.47 428.725,271.599 Q428,272.729 428,274.952 Q428,277.167 428.725,278.296 Q429.45,279.426 430.874,279.426 Q431.542,279.426 432.17,279.14 Q432.799,278.854 433.467,278.239 Z " fill="#000"/><text x="452.966" y="279.86" fill="#000" font-size="18" textLength="174.015" font-family="'Helvetica'">МодераторКонтенту</text><line x1="280.23" y1="292" x2="764.716" y2="292" style="stroke:#33668E;stroke-width:0.5;"/><text x="285.23" y="309.86" fill="#000" font-size="18" textLength="245.109" font-family="'Helvetica'">-зонаВідповідальності: String</text><text x="285.23" y="327.86" fill="#000" font-size="18" textLength="195.82" font-family="'Helvetica'">-кількістьПеревірок: int</text><text x="285.23" y="345.86" fill="#000" font-size="18" textLength="206.244" font-family="'Helvetica'">-датаПризначення: Date</text><line x1="280.23" y1="354" x2="764.716" y2="354" style="stroke:#33668E;stroke-width:0.5;"/><text x="285.23" y="371.86" fill="#000" font-size="18" textLength="330.328" font-family="'Helvetica'">+схвалити(з: ЗавданняМодерації): void</text><text x="285.23" y="389.86" fill="#000" font-size="18" textLength="474.486" font-family="'Helvetica'">+відхилити(з: ЗавданняМодерації, причина: String): void</text><text x="285.23" y="407.86" fill="#000" font-size="18" textLength="201.894" font-family="'Helvetica'">+отриматиРоль(): String</text></g><!--class АдміністраторСистеми--><g class="entity" data-qualified-name="...................." id="ent0004" data-source-line="50"><rect x="790.27" y="258" width="598.397" height="158" fill="#FEFEFE" style="stroke:#33668E;stroke-width:0.5;" rx="2.5" ry="2.5"/><ellipse cx="987.889" cy="275" rx="12" ry="12" fill="#ADD1B2" style="stroke:#181818;stroke-width:1;"/><path d="M990.39,281.122 Q989.775,281.438 989.098,281.597 Q988.421,281.755 987.674,281.755 Q985.02,281.755 983.623,280.006 Q982.225,278.257 982.225,274.952 Q982.225,271.639 983.623,269.89 Q985.02,268.141 987.674,268.141 Q988.421,268.141 989.107,268.299 Q989.792,268.457 990.39,268.773 L990.39,271.656 Q989.722,271.041 989.094,270.755 Q988.465,270.47 987.797,270.47 Q986.374,270.47 985.648,271.599 Q984.923,272.729 984.923,274.952 Q984.923,277.167 985.648,278.296 Q986.374,279.426 987.797,279.426 Q988.465,279.426 989.094,279.14 Q989.722,278.854 990.39,278.239 Z " fill="#000"/><text x="1009.889" y="279.86" fill="#000" font-size="18" textLength="194.159" font-family="'Helvetica'">АдміністраторСистеми</text><line x1="791.27" y1="292" x2="1387.667" y2="292" style="stroke:#33668E;stroke-width:0.5;"/><text x="796.27" y="309.86" fill="#000" font-size="18" textLength="156.533" font-family="'Helvetica'">-рівеньДоступу: int</text><text x="796.27" y="327.86" fill="#000" font-size="18" textLength="142.198" font-family="'Helvetica'">-підрозділ: String</text><text x="796.27" y="345.86" fill="#000" font-size="18" textLength="328.491" font-family="'Helvetica'">-двофакторнаАвтентифікація: boolean</text><line x1="791.27" y1="354" x2="1387.667" y2="354" style="stroke:#33668E;stroke-width:0.5;"/><text x="796.27" y="371.86" fill="#000" font-size="18" textLength="586.397" font-family="'Helvetica'">+створитиТарифнийПлан(назва: String, ціна: double): ТарифнийПлан</text><text x="796.27" y="389.86" fill="#000" font-size="18" textLength="461.9" font-family="'Helvetica'">+змінитиЦіну(план: ТарифнийПлан, нова: double): void</text><text x="796.27" y="407.86" fill="#000" font-size="18" textLength="201.894" font-family="'Helvetica'">+отриматиРоль(): String</text></g><!--class Сповіщення--><g class="entity" data-qualified-name=".........." id="ent0005" data-source-line="59"><rect x="1413.4" y="258" width="366.155" height="158" fill="#FEFEFE" style="stroke:#33668E;stroke-width:0.5;" rx="2.5" ry="2.5"/><ellipse cx="1541.366" cy="275" rx="12" ry="12" fill="#ADD1B2" style="stroke:#181818;stroke-width:1;"/><path d="M1543.867,281.122 Q1543.252,281.438 1542.575,281.597 Q1541.898,281.755 1541.151,281.755 Q1538.497,281.755 1537.099,280.006 Q1535.702,278.257 1535.702,274.952 Q1535.702,271.639 1537.099,269.89 Q1538.497,268.141 1541.151,268.141 Q1541.898,268.141 1542.584,268.299 Q1543.269,268.457 1543.867,268.773 L1543.867,271.656 Q1543.199,271.041 1542.57,270.755 Q1541.942,270.47 1541.274,270.47 Q1539.85,270.47 1539.125,271.599 Q1538.4,272.729 1538.4,274.952 Q1538.4,277.167 1539.125,278.296 Q1539.85,279.426 1541.274,279.426 Q1541.942,279.426 1542.57,279.14 Q1543.199,278.854 1543.867,278.239 Z " fill="#000"/><text x="1563.366" y="279.86" fill="#000" font-size="18" textLength="101.224" font-family="'Helvetica'">Сповіщення</text><line x1="1414.4" y1="292" x2="1778.555" y2="292" style="stroke:#33668E;stroke-width:0.5;"/><text x="1419.4" y="309.86" fill="#000" font-size="18" textLength="92.531" font-family="'Helvetica'">-тип: String</text><text x="1419.4" y="327.86" fill="#000" font-size="18" textLength="194.115" font-family="'Helvetica'">-каналДоставки: String</text><text x="1419.4" y="345.86" fill="#000" font-size="18" textLength="251.165" font-family="'Helvetica'">-датаВідправлення: DateTime</text><text x="1419.4" y="363.86" fill="#000" font-size="18" textLength="198.896" font-family="'Helvetica'">-статусДоставки: String</text><line x1="1414.4" y1="372" x2="1778.555" y2="372" style="stroke:#33668E;stroke-width:0.5;"/><text x="1419.4" y="389.86" fill="#000" font-size="18" textLength="354.155" font-family="'Helvetica'">+сформуватиТекст(шаблон: String): String</text><text x="1419.4" y="407.86" fill="#000" font-size="18" textLength="180.343" font-family="'Helvetica'">+надіслати(): boolean</text></g><!--class Скарга--><g class="entity" data-qualified-name="......" id="ent0006" data-source-line="68"><rect x="198.71" y="865" width="271.523" height="158" fill="#FEFEFE" style="stroke:#33668E;stroke-width:0.5;" rx="2.5" ry="2.5"/><ellipse cx="299.9" cy="882" rx="12" ry="12" fill="#ADD1B2" style="stroke:#181818;stroke-width:1;"/><path d="M302.401,888.122 Q301.786,888.438 301.109,888.597 Q300.432,888.755 299.685,888.755 Q297.031,888.755 295.633,887.006 Q294.236,885.257 294.236,881.952 Q294.236,878.639 295.633,876.89 Q297.031,875.141 299.685,875.141 Q300.432,875.141 301.118,875.299 Q301.803,875.457 302.401,875.773 L302.401,878.656 Q301.733,878.041 301.105,877.755 Q300.476,877.47 299.808,877.47 Q298.384,877.47 297.659,878.599 Q296.934,879.729 296.934,881.952 Q296.934,884.167 297.659,885.296 Q298.384,886.426 299.808,886.426 Q300.476,886.426 301.105,886.14 Q301.733,885.854 302.401,885.239 Z " fill="#000"/><text x="321.9" y="886.86" fill="#000" font-size="18" textLength="60.144" font-family="'Helvetica'">Скарга</text><line x1="199.71" y1="899" x2="469.233" y2="899" style="stroke:#33668E;stroke-width:0.5;"/><text x="204.71" y="916.86" fill="#000" font-size="18" textLength="133.752" font-family="'Helvetica'">-причина: String</text><text x="204.71" y="934.86" fill="#000" font-size="18" textLength="143.921" font-family="'Helvetica'">-коментар: String</text><text x="204.71" y="952.86" fill="#000" font-size="18" textLength="225.905" font-family="'Helvetica'">-датаСтворення: DateTime</text><text x="204.71" y="970.86" fill="#000" font-size="18" textLength="118.028" font-family="'Helvetica'">-статус: String</text><line x1="199.71" y1="979" x2="469.233" y2="979" style="stroke:#33668E;stroke-width:0.5;"/><text x="204.71" y="996.86" fill="#000" font-size="18" textLength="189.94" font-family="'Helvetica'">+зареєструвати(): void</text><text x="204.71" y="1014.86" fill="#000" font-size="18" textLength="259.523" font-family="'Helvetica'">+закрити(рішення: String): void</text></g><!--class ЗавданняМодерації--><g class="entity" data-qualified-name="................." id="ent0007" data-source-line="77"><rect x="334.09" y="650" width="372.765" height="158" fill="#FEFEFE" style="stroke:#33668E;stroke-width:0.5;" rx="2.5" ry="2.5"/><ellipse cx="432.177" cy="667" rx="12" ry="12" fill="#ADD1B2" style="stroke:#181818;stroke-width:1;"/><path d="M434.678,673.122 Q434.063,673.438 433.386,673.597 Q432.71,673.755 431.963,673.755 Q429.308,673.755 427.911,672.006 Q426.513,670.257 426.513,666.952 Q426.513,663.639 427.911,661.89 Q429.308,660.141 431.963,660.141 Q432.71,660.141 433.395,660.299 Q434.081,660.457 434.678,660.773 L434.678,663.656 Q434.01,663.041 433.382,662.755 Q432.754,662.47 432.086,662.47 Q430.662,662.47 429.937,663.599 Q429.212,664.729 429.212,666.952 Q429.212,669.167 429.937,670.296 Q430.662,671.426 432.086,671.426 Q432.754,671.426 433.382,671.14 Q434.01,670.854 434.678,670.239 Z " fill="#000"/><text x="454.177" y="671.86" fill="#000" font-size="18" textLength="167.59" font-family="'Helvetica'">ЗавданняМодерації</text><line x1="335.09" y1="684" x2="705.855" y2="684" style="stroke:#33668E;stroke-width:0.5;"/><text x="340.09" y="701.86" fill="#000" font-size="18" textLength="225.905" font-family="'Helvetica'">-датаСтворення: DateTime</text><text x="340.09" y="719.86" fill="#000" font-size="18" textLength="117.563" font-family="'Helvetica'">-пріоритет: int</text><text x="340.09" y="737.86" fill="#000" font-size="18" textLength="131.106" font-family="'Helvetica'">-рішення: String</text><text x="340.09" y="755.86" fill="#000" font-size="18" textLength="248.897" font-family="'Helvetica'">-коментарМодератора: String</text><line x1="335.09" y1="764" x2="705.855" y2="764" style="stroke:#33668E;stroke-width:0.5;"/><text x="340.09" y="781.86" fill="#000" font-size="18" textLength="360.765" font-family="'Helvetica'">+призначити(м: МодераторКонтенту): void</text><text x="340.09" y="799.86" fill="#000" font-size="18" textLength="283.535" font-family="'Helvetica'">+завершити(рішення: String): void</text></g><!--class Публікація--><g class="entity" data-qualified-name=".........." id="ent0008" data-source-line="86"><rect x="210.14" y="1080" width="434.666" height="194" fill="#FEFEFE" style="stroke:#33668E;stroke-width:0.5;" rx="2.5" ry="2.5"/><ellipse cx="378.07" cy="1097" rx="12" ry="12" fill="#A9DCDF" style="stroke:#181818;stroke-width:1;"/><path d="M377.984,1092.251 L376.762,1097.621 L379.214,1097.621 Z M376.402,1089.878 L379.575,1089.878 L383.117,1103 L380.524,1103 L379.715,1099.757 L376.244,1099.757 L375.453,1103 L372.86,1103 Z " fill="#000"/><text x="400.07" y="1101.86" fill="#000" font-size="18" textLength="89.807" font-style="italic" font-family="'Helvetica'">Публікація</text><line x1="211.14" y1="1114" x2="643.806" y2="1114" style="stroke:#33668E;stroke-width:0.5;"/><text x="216.14" y="1131.86" fill="#000" font-size="18" textLength="78.021" font-family="'Helvetica'">#id: UUID</text><text x="216.14" y="1149.86" fill="#000" font-size="18" textLength="115.928" font-family="'Helvetica'">#назва: String</text><text x="216.14" y="1167.86" fill="#000" font-size="18" textLength="108.905" font-family="'Helvetica'">#мова: String</text><text x="216.14" y="1185.86" fill="#000" font-size="18" textLength="231.451" font-family="'Helvetica'">#датаДодавання: DateTime</text><text x="216.14" y="1203.86" fill="#000" font-size="18" textLength="206.789" font-family="'Helvetica'">#статусМодерації: String</text><line x1="211.14" y1="1212" x2="643.806" y2="1212" style="stroke:#33668E;stroke-width:0.5;"/><text x="216.14" y="1229.86" fill="#000" font-size="18" textLength="422.666" font-family="'Helvetica'">+відкритиДляЧитання(ч: Читач): ПрогресЧитання</text><text x="216.14" y="1247.86" fill="#000" font-size="18" textLength="258.75" font-family="'Helvetica'">+отриматиОбсягСторінок(): int</text><text x="216.14" y="1265.86" fill="#000" font-size="18" textLength="362.294" font-style="italic" font-family="'Helvetica'">+перевіритиДоступність(ч: Читач): boolean</text></g><!--reverse link КористувачСистеми to Читач--><g class="link" data-entity-1="ent0001" data-entity-2="ent0002" id="lnk9" data-source-line="98" data-link-type="extension"><path d="M781.351,119.933 C602.471,138.953 334.99,179.08 266.47,258 C225.02,305.75 220.58,377.47 225.95,435.56" style="stroke:#33668E;stroke-width:1;" fill="none" id="КористувачСистеми-backto-Читач" codeLine="98"/><polygon points="799.25,118.03,780.717,113.967,781.985,125.9,799.25,118.03" fill="none" style="stroke:#33668E;stroke-width:1;stroke-linejoin:miter;stroke-miterlimit:10;"/></g><!--reverse link КористувачСистеми to МодераторКонтенту--><g class="link" data-entity-1="ent0001" data-entity-2="ent0003" id="lnk10" data-source-line="99" data-link-type="extension"><path d="M783.614,194.064 C740.604,217.434 709.53,234.33 666.77,257.57" style="stroke:#33668E;stroke-width:1;" fill="none" id="КористувачСистеми-backto-МодераторКонтенту" codeLine="99"/><polygon points="799.43,185.47,780.749,188.792,786.479,199.336,799.43,185.47" fill="none" style="stroke:#33668E;stroke-width:1;stroke-linejoin:miter;stroke-miterlimit:10;"/></g><!--reverse link КористувачСистеми to АдміністраторСистеми--><g class="link" data-entity-1="ent0001" data-entity-2="ent0004" id="lnk11" data-source-line="100" data-link-type="extension"><path d="M1016.091,216.628 C1027.651,235.448 1030.23,239.63 1041.38,257.77" style="stroke:#33668E;stroke-width:1;" fill="none" id="КористувачСистеми-backto-АдміністраторСистеми" codeLine="100"/><polygon points="1006.67,201.29,1010.978,219.768,1021.204,213.487,1006.67,201.29" fill="none" style="stroke:#33668E;stroke-width:1;stroke-linejoin:miter;stroke-miterlimit:10;"/></g><!--reverse link ЗавданняМодерації to Скарга--><g class="link" data-entity-1="ent0007" data-entity-2="ent0006" id="lnk12" data-source-line="103" data-link-type="aggregation"><path d="M444.114,817.446 C428.054,835.826 418.84,846.38 402.8,864.76" style="stroke:#33668E;stroke-width:1;" fill="none" id="ЗавданняМодерації-backto-Скарга" codeLine="103"/><polygon points="452.01,808.41,445.05,810.296,444.114,817.446,451.074,815.56,452.01,808.41" fill="none" style="stroke:#33668E;stroke-width:1;stroke-linejoin:miter;stroke-miterlimit:10;"/><text x="434.05" y="840.55" fill="#000" font-size="15" textLength="45.227" font-family="'Helvetica'">групує</text><text x="420.053" y="827.429" fill="#000" font-size="15" textLength="25.02" font-family="'Helvetica'">0..1</text><text x="385.929" y="853.585" fill="#000" font-size="15" textLength="22.515" font-family="'Helvetica'">0..*</text></g><!--link КористувачСистеми to Сповіщення--><g class="link" data-entity-1="ent0001" data-entity-2="ent0005" id="lnk13" data-source-line="106" data-link-type="association"><path d="M1095.67,152.64 C1184.74,181.85 1300.1,220.68 1401.47,258 C1405.32,259.42 1409.21,260.86 1413.13,262.33" style="stroke:#33668E;stroke-width:1;" fill="none" id="КористувачСистеми-Сповіщення" codeLine="106"/><polygon points="1351.881,231.459,1342.774,224.581,1340.47,231.248,1351.881,231.459" fill="#000" style="stroke:#000;stroke-width:1;stroke-linejoin:miter;stroke-miterlimit:10;"/><text x="1356.21" y="233.55" fill="#000" font-size="15" textLength="57.927" font-family="'Helvetica'">отримує</text><text x="1102.952" y="151.054" fill="#000" font-size="15" textLength="25.02" font-family="'Helvetica'">0..1</text><text x="1382.65" y="251.33" fill="#000" font-size="15" textLength="22.515" font-family="'Helvetica'">0..*</text></g><!--link Читач to Скарга--><g class="link" data-entity-1="ent0002" data-entity-2="ent0006" id="lnk14" data-source-line="107" data-link-type="association"><path d="M241.51,630.45 C242.26,683.73 247.16,750.55 263.47,808 C268.9,827.11 277.24,846.6 286.32,864.62" style="stroke:#33668E;stroke-width:1;" fill="none" id="Читач-Скарга" codeLine="107"/><polygon points="270.598,734.893,272.022,723.57,265.094,724.895,270.598,734.893" fill="#000" style="stroke:#000;stroke-width:1;stroke-linejoin:miter;stroke-miterlimit:10;"/><text x="279.47" y="733.05" fill="#000" font-size="15" textLength="41.616" font-family="'Helvetica'">подає</text><text x="233.011" y="649.708" fill="#000" font-size="15" font-family="'Helvetica'">1</text><text x="259.075" y="853.433" fill="#000" font-size="15" textLength="22.515" font-family="'Helvetica'">0..*</text></g><!--link МодераторКонтенту to ЗавданняМодерації--><g class="link" data-entity-1="ent0003" data-entity-2="ent0007" id="lnk15" data-source-line="108" data-link-type="association"><path d="M522.07,416.45 C521.72,484.3 521.22,581.87 520.87,649.67" style="stroke:#33668E;stroke-width:1;" fill="none" id="МодераторКонтенту-ЗавданняМодерації" codeLine="108"/><polygon points="527.909,539,531.492,528.164,524.438,528.128,527.909,539" fill="#000" style="stroke:#000;stroke-width:1;stroke-linejoin:miter;stroke-miterlimit:10;"/><text x="537.94" y="537.05" fill="#000" font-size="15" textLength="56.873" font-family="'Helvetica'">виконує</text><text x="495.962" y="435.473" fill="#000" font-size="15" textLength="25.02" font-family="'Helvetica'">0..1</text><text x="497.949" y="638.487" fill="#000" font-size="15" textLength="22.515" font-family="'Helvetica'">0..*</text></g><!--link Скарга to Публікація--><g class="link" data-entity-1="ent0006" data-entity-2="ent0008" id="lnk16" data-source-line="109" data-link-type="association"><path d="M365.96,1023.21 C373.28,1041.4 381.16,1060.98 388.76,1079.84" style="stroke:#33668E;stroke-width:1;" fill="none" id="Скарга-Публікація" codeLine="109"/><polygon points="386.421,1057.066,385.639,1045.68,379.096,1048.314,386.421,1057.066" fill="#000" style="stroke:#000;stroke-width:1;stroke-linejoin:miter;stroke-miterlimit:10;"/><text x="394.18" y="1055.55" fill="#000" font-size="15" textLength="76.707" font-family="'Helvetica'">стосується</text><text x="345.808" y="1042.483" fill="#000" font-size="15" textLength="22.515" font-family="'Helvetica'">0..*</text><text x="377.636" y="1068.704" fill="#000" font-size="15" font-family="'Helvetica'">1</text></g><!--link ЗавданняМодерації to Публікація--><g class="link" data-entity-1="ent0007" data-entity-2="ent0008" id="lnk17" data-source-line="110" data-link-type="association"><path d="M516.5,808.24 C511.6,875.9 500.84,975.79 477.47,1060 C475.68,1066.45 473.61,1073 471.35,1079.55" style="stroke:#33668E;stroke-width:1;" fill="none" id="ЗавданняМодерації-Публікація" codeLine="110"/><polygon points="516.225,949.919,521.486,939.791,514.528,938.633,516.225,949.919" fill="#000" style="stroke:#000;stroke-width:1;stroke-linejoin:miter;stroke-miterlimit:10;"/><text x="527.21" y="948.05" fill="#000" font-size="15" textLength="69.133" font-family="'Helvetica'">перевіряє</text><text x="493.189" y="827.516" fill="#000" font-size="15" textLength="22.515" font-family="'Helvetica'">0..*</text><text x="466.291" y="1068.393" fill="#000" font-size="15" font-family="'Helvetica'">1</text></g><?plantuml-src dLTTJnjN47tthxXo7bYI6F7HHD6gYfGsYSfBNzByW0Llg8Nn8jiaKjD80TEGIbP04J8IYa99g-RLCIOsnX_lVRhxZtfcxjtrlVPIcme9yFquCtFcpCprZ93lPLisnSASaCUo7xwMxN0xt0ahiY7huLvOkora4-jgRI32cf1TsSVQESxMmpTXBTnFpGZv6HzmI7QmsG3aXU0_JI47lD83o16mmfgiopEw2vosmFbBlbcJ3U6ivhrIoI_DRMvjv6VXqQdQ9fGw781pyajOmNzqMhbo3fjzXcsG6sJ-AncJPx8_HA_eAEGb7QHz8Ll0gk5OFJm4OXMdzh5e-ljkr5yipP6LO_g4dHukLM64m_q8M-Uomx7Wuo75nqup8U4Uc0GEiIZhHFkdpE9IPZ6LAgtd2fjUqTiGMV-PjvKlFmuAvH-z3L-aV_3pp_roRjLB9vzwall55mltZ4rcy46vNCojR9NzvTMWm6VcZIEbdxriy29NM1FFl7p9DtOU58l1Yo7k7MEh46Jzahyf5it5ebTOfyLlvaSz42zJGdpdhQwl5OEjGlRx81yKnOt7Z-Y7Te9YrY_grQMbktVlqIgRjnTVfLBUIgbSz5RB6ZX9fT09VmRzf2coVKFaigvu-dJv8N_mDxnStXLFm4jXZLV2to2Tj_84zob3b-6-jGsvG758ynyuTiZ68haVkUAXL_P_octu2eaiapmhqDS1r527NprQCn1l2NAMb86DjaCQq7QhqQbPLwm4GTxt2dmU-cI9aOXa-n45uB2mkRgCIy-3N9Pll8oeUYN0aIgNBeVHHXXiovcDVGArcj7FR08yCdCP59Ri_jEr2CcegWVRyWt7XkeFTy7t1HMNVR2XPK-9EMUFZt2DhZ8fA4-iKjYvGfblh0N1MjvVpjfqxS7h3rISn2d7WA84YITmhmd-a76iLvnnscnZJ1_AZHi18nmJgQZ5YXFkkaB-XMCNsDRBiWr4L6-VqAd149A27d0BwN3gD31r3MGJDqvm-WltbqxK5r7n0zOgnT8Rwe4Cd6eSz1y5VfsCVJ0wy0xN0wf2vOL-ezsfJ8ACFXcMxpLfVTOWj4tGtED8sJKxWHqSeMtyvUqggeHidTDbLcrdcBouK4xO-nQPqudlaOIeL5H2jr5ob9XBnPmZMw11IOCSulDMP5nifi2Lyu1fNnFaFn8n1BzE0Ww0hmP0BUuDAX7ZhGW5zPgd3ikUb1LDKwgScCS1nqRijdZgNDf9QGAWZvAhSp6G9Shh0IZHIOVTNLDyTbcmJmtTEYcwJwm-t67LNo35D6Xx3iEsA56H_Tk201LjsM1h9U-JVg-udz2wvDzCL8MQ7f-v-ZRof3gSQUh_PUWqKdluUoJ6A1jqTJ0YUTOEQLEdXnM5mJwQ1ALrNKxyAcZms3VKhWT3nXuCL-DoSdOvDLqzqLI2r6DYny6OgbDheLesb6i0iEzDqYAtEIeCeosQfCHD9-eGYNKHaTAF-X_TIgRYDDRLP19idrliIZnTXw4xLj9RB7ajMuTA2Np4jkmw7aOwiIL4yKyR1n65h4S5X6Vdi7QJdKeaCQ5rsyy4bP2uZ-ekrtMdQFfZj3LuJB-TbhhHbrR2H4jwMurt3BNSZIevwLbroC7eIJr6zyYZQYnvDcDgfCKQ0JPUSz6hHg4xuPvhF7HcULvJhprZ2MxRfvExpKTyNy2qH_6SAlwvnM4OabwL5EmtsC2Qcf5lSVUFXqTrt3kZT6T49WCT_SaPFOidTzJJdALPEf2QubtyxQy459kP_if4vKqFDUNWZCC-K1dYhsbAWSw23dXoYQVdv-OMqY804FrxCsrtG3V-GWQL7GvDGWvz7daH3dqhx7AkltAVZ9n_9vmxKxEldR5y6HzHhg4xyahSJndly_GeW1NCGDMKkZJvYJZkq6H6NVMjliDGsZtJ2ur4c81Ex22kgcqgWuhnpVl-j0cT26_NNRXFNluB?></g></svg>